<svg width="350" height="350" viewBox="0 0 350 350" fill="none" xmlns="http://www.w3.org/2000/svg">
<path d="M201.88 274.4C201.88 274.4 256.382 276.948 290.857 215.355C325.332 153.762 284.767 97.104 222.103 84.861C159.439 72.618 128.219 26.649 72.366 61.838C16.513 97.027 47.551 284.431 201.88 274.4Z" fill="#F1F1F1"/>
<path opacity="0.4" d="M201.88 274.4C201.88 274.4 256.382 276.948 290.857 215.355C325.332 153.762 284.767 97.104 222.103 84.861C159.439 72.618 128.219 26.649 72.366 61.838C16.513 97.027 47.551 284.431 201.88 274.4Z" fill="white"/>
<path d="M203.756 79.268L203.378 82.474L205.114 83.09C205.139 84.1889 205.292 85.2812 205.569 86.345L204.064 87.437L205.331 90.412L207.158 90.069C207.727 91.0076 208.404 91.8768 209.174 92.659L208.411 94.367L211.001 96.299L212.401 95.109C213.363 95.6393 214.386 96.0529 215.446 96.341L215.642 98.196L218.841 98.581L219.464 96.838C220.563 96.8128 221.655 96.6601 222.719 96.383L223.818 97.881L226.8 96.6L226.471 94.78C227.407 94.2102 228.274 93.5337 229.054 92.764L230.762 93.527L232.694 90.937L231.497 89.537C232.028 88.5776 232.442 87.5575 232.729 86.499L234.584 86.303L234.969 83.097L233.226 82.474C233.204 81.3771 233.051 80.2867 232.771 79.226L234.283 78.127L233.009 75.152L231.189 75.488C230.617 74.5517 229.938 73.6849 229.166 72.905L229.922 71.204L227.311 69.3L225.911 70.497C224.953 69.9727 223.939 69.5594 222.887 69.265L222.691 67.41L219.485 67.032L218.862 68.768C217.765 68.7951 216.675 68.9501 215.614 69.23L214.515 67.725L211.54 68.992L211.876 70.812C210.944 71.3733 210.079 72.0404 209.3 72.8L207.599 72.044L205.66 74.634L206.857 76.034C206.327 76.9966 205.914 78.0188 205.625 79.079L203.756 79.268ZM211.197 81.837C211.384 80.2607 212.035 78.7755 213.067 77.5693C214.099 76.3631 215.466 75.4902 216.994 75.061C218.522 74.6319 220.144 74.6658 221.653 75.1585C223.162 75.6512 224.491 76.5805 225.471 77.8288C226.452 79.0771 227.04 80.5883 227.161 82.171C227.283 83.7538 226.932 85.337 226.153 86.7202C225.374 88.1034 224.202 89.2244 222.786 89.9414C221.37 90.6584 219.773 90.9391 218.197 90.748V90.748C216.088 90.4922 214.167 89.4104 212.854 87.7399C211.542 86.0693 210.946 83.9465 211.197 81.837Z" stroke="#263238" stroke-width="1.57112" stroke-linejoin="round"/>
<path d="M120.127 158.158L119.784 161.063L121.359 161.623C121.381 162.618 121.52 163.607 121.772 164.57L120.372 165.564L121.52 168.259L123.172 167.944C123.689 168.793 124.302 169.58 124.999 170.289L124.299 171.836L126.7 173.6L127.967 172.515C128.838 172.998 129.764 173.374 130.725 173.635L130.9 175.315L133.805 175.665L134.365 174.083C135.36 174.062 136.349 173.924 137.312 173.67L138.306 175.035L140.994 173.88L140.7 172.2C141.549 171.683 142.336 171.07 143.045 170.373L144.592 171.073L146.342 168.735L145.257 167.454C145.738 166.585 146.114 165.661 146.377 164.703L148.057 164.521L148.4 161.616L146.825 161.056C146.803 160.061 146.664 159.072 146.412 158.109L147.812 157.115L146.657 154.42L145.012 154.721C144.49 153.876 143.872 153.094 143.171 152.39L143.871 150.843L141.47 149.1L140.196 150.185C139.329 149.706 138.408 149.333 137.452 149.072L137.277 147.392L134.372 147.042L133.812 148.624C132.817 148.645 131.828 148.784 130.865 149.037L129.871 147.7L127.176 148.848L127.477 150.5C126.627 151.016 125.84 151.629 125.132 152.327L123.585 151.627L121.835 153.972L122.92 155.246C122.44 156.118 122.064 157.044 121.8 158.004L120.127 158.158ZM126.868 160.482C127.039 159.055 127.628 157.711 128.563 156.62C129.497 155.528 130.734 154.738 132.118 154.35C133.501 153.961 134.969 153.991 136.335 154.437C137.701 154.882 138.904 155.723 139.793 156.852C140.681 157.981 141.215 159.348 141.327 160.781C141.438 162.214 141.122 163.647 140.419 164.9C139.716 166.153 138.657 167.17 137.377 167.821C136.096 168.473 134.651 168.73 133.224 168.56V168.56C131.31 168.33 129.566 167.351 128.374 165.836C127.183 164.322 126.641 162.396 126.868 160.482V160.482Z" fill="#263238"/>
<path d="M268.156 229.425V222.838L264.481 222.005C264.17 219.784 263.596 217.609 262.773 215.523L265.573 212.94L262.269 207.2L258.657 208.341C257.274 206.579 255.691 204.984 253.939 203.588L255.08 199.941L249.361 196.644L246.806 199.395C244.727 198.556 242.556 197.966 240.338 197.638L239.498 193.928H232.911L232.071 197.61C229.85 197.919 227.674 198.492 225.589 199.318L223.006 196.518L217.301 199.808L218.414 203.42C216.652 204.8 215.057 206.381 213.661 208.131L210.021 207.004L206.731 212.702L209.489 215.271C208.651 217.348 208.061 219.517 207.732 221.732L204.022 222.579V229.166L207.697 230.006C208.012 232.223 208.586 234.396 209.405 236.481L206.605 239.071L209.902 244.79L213.507 243.677C214.893 245.434 216.482 247.023 218.239 248.409L217.112 252.056L222.838 255.353L225.393 252.553C227.46 253.394 229.619 253.986 231.826 254.317L232.666 258.027H239.26L240.093 254.352C242.316 254.033 244.493 253.455 246.582 252.63L249.165 255.43L254.884 252.133L253.771 248.528C255.534 247.149 257.13 245.568 258.524 243.817L262.164 244.944L265.461 239.218L262.696 236.656C263.534 234.576 264.126 232.405 264.46 230.188L268.156 229.425ZM256.767 226.023C256.767 230.113 255.554 234.111 253.282 237.511C251.01 240.912 247.78 243.562 244.002 245.127C240.224 246.692 236.066 247.102 232.055 246.304C228.044 245.506 224.359 243.536 221.467 240.645C218.576 237.753 216.606 234.068 215.808 230.057C215.01 226.046 215.42 221.888 216.985 218.11C218.55 214.331 221.2 211.102 224.601 208.83C228.001 206.558 231.999 205.345 236.089 205.345V205.345C241.573 205.345 246.833 207.524 250.71 211.401C254.588 215.279 256.767 220.539 256.767 226.023V226.023Z" fill="white"/>
<path d="M153.706 65.905H136.738V69.818H153.706V65.905Z" fill="#F1F1F1"/>
<path d="M147.889 71.561H136.738V75.474H147.889V71.561Z" fill="#F1F1F1"/>
<path d="M143.157 77.217H136.738V81.13H143.157V77.217Z" fill="#F1F1F1"/>
<path opacity="0.2" d="M153.706 65.905H136.738V69.818H153.706V65.905Z" fill="#181818"/>
<path opacity="0.2" d="M147.889 71.561H136.738V75.474H147.889V71.561Z" fill="#181818"/>
<path opacity="0.2" d="M143.157 77.217H136.738V81.13H143.157V77.217Z" fill="#181818"/>
<path d="M113.029 109.249H107.275V121.037H113.029V109.249Z" fill="#F1F1F1"/>
<path d="M121.338 113.302H115.584V121.044H121.338V113.302Z" fill="#F1F1F1"/>
<path d="M129.654 116.585H123.9V121.044H129.654V116.585Z" fill="#F1F1F1"/>
<path opacity="0.2" d="M113.029 109.249H107.275V121.037H113.029V109.249Z" fill="#181818"/>
<path opacity="0.2" d="M121.338 113.302H115.584V121.044H121.338V113.302Z" fill="#181818"/>
<path opacity="0.2" d="M129.654 116.585H123.9V121.044H129.654V116.585Z" fill="#181818"/>
<path d="M175.658 129.962H105.987C105.031 129.964 104.083 129.777 103.199 129.412C102.315 129.048 101.512 128.512 100.835 127.837C100.158 127.161 99.6213 126.359 99.2549 125.475C98.8885 124.592 98.6999 123.645 98.7 122.689V65.17C98.7037 63.2422 99.4711 61.3944 100.834 60.0313C102.197 58.6681 104.045 57.9007 105.973 57.897H175.644C176.6 57.8961 177.547 58.0834 178.43 58.4485C179.314 58.8135 180.117 59.3489 180.794 60.0243C181.47 60.6996 182.007 61.5017 182.374 62.3846C182.741 63.2675 182.93 64.214 182.931 65.17V122.689C182.931 124.618 182.165 126.468 180.801 127.832C179.437 129.196 177.587 129.962 175.658 129.962ZM105.987 58.562C104.228 58.5657 102.542 59.266 101.299 60.5097C100.055 61.7534 99.3546 63.4391 99.3509 65.198V122.717C99.3546 124.476 100.055 126.162 101.299 127.405C102.542 128.649 104.228 129.349 105.987 129.353H175.658C177.417 129.349 179.103 128.649 180.346 127.405C181.59 126.162 182.29 124.476 182.294 122.717V65.17C182.29 63.4111 181.59 61.7254 180.346 60.4817C179.103 59.238 177.417 58.5377 175.658 58.534L105.987 58.562Z" fill="#263238"/>
<path d="M174.762 109.571H149.919V110.208H174.762V109.571Z" fill="#263238"/>
<path d="M174.762 112.238H149.919V112.875H174.762V112.238Z" fill="#263238"/>
<path d="M174.762 114.898H149.919V115.535H174.762V114.898Z" fill="#263238"/>
<path d="M174.762 117.558H149.919V118.195H174.762V117.558Z" fill="#263238"/>
<path d="M174.762 120.218H149.919V120.855H174.762V120.218Z" fill="#263238"/>
<path d="M131.355 66.171H106.512V66.808H131.355V66.171Z" fill="#263238"/>
<path d="M131.355 68.8309H106.512V69.4679H131.355V68.8309Z" fill="#263238"/>
<path d="M131.355 71.491H106.512V72.128H131.355V71.491Z" fill="#263238"/>
<path d="M131.355 74.151H106.512V74.788H131.355V74.151Z" fill="#263238"/>
<path d="M131.355 76.811H106.512V77.448H131.355V76.811Z" fill="#263238"/>
<path d="M169.855 87.6609L174.307 89.9989L173.796 77.4409L163.177 84.1609L167.629 86.4919L164.276 92.8689C163.685 92.8682 163.111 93.0654 162.645 93.4289L156.73 90.6919V90.6569C156.755 89.9433 156.499 89.2484 156.016 88.7226C155.533 88.1967 154.862 87.8823 154.149 87.8473C153.436 87.8124 152.737 88.0597 152.205 88.5357C151.673 89.0118 151.349 89.6783 151.305 90.3909C151.298 90.4795 151.298 90.5684 151.305 90.6569C151.309 91.0454 151.392 91.429 151.55 91.7839L143.85 100.184C143.603 100.106 143.346 100.066 143.087 100.065C142.953 100.065 142.819 100.079 142.688 100.107L131.6 86.0299C131.853 85.379 131.846 84.6554 131.578 84.0102C131.311 83.3649 130.804 82.8479 130.165 82.567C129.525 82.2861 128.802 82.2631 128.146 82.5027C127.49 82.7423 126.952 83.226 126.644 83.8529C126.491 84.1916 126.412 84.5592 126.413 84.9309C126.421 85.2091 126.469 85.4847 126.553 85.7499L113.918 98.6999C113.415 98.5186 112.87 98.49 112.352 98.6176C111.833 98.7452 111.363 99.0235 111.002 99.4173C110.641 99.8111 110.404 100.303 110.322 100.831C110.24 101.359 110.315 101.899 110.539 102.384C110.764 102.869 111.126 103.277 111.581 103.557C112.037 103.836 112.565 103.975 113.099 103.955C113.633 103.936 114.149 103.758 114.582 103.446C115.016 103.134 115.347 102.7 115.535 102.2V102.2C115.641 101.901 115.695 101.586 115.696 101.269C115.697 101.046 115.666 100.825 115.605 100.611L128.38 87.4999C128.631 87.5832 128.893 87.6257 129.157 87.6259C129.324 87.627 129.49 87.6105 129.654 87.5769L140.679 101.577C140.333 102.216 140.254 102.966 140.461 103.662C140.668 104.358 141.143 104.944 141.781 105.29C142.42 105.637 143.17 105.715 143.867 105.508C144.563 105.301 145.149 104.827 145.495 104.188C145.691 103.833 145.803 103.438 145.824 103.033C145.831 102.942 145.831 102.851 145.824 102.76C145.82 102.477 145.772 102.196 145.684 101.927L153.566 93.3449C153.716 93.3728 153.868 93.3868 154.021 93.3869C154.56 93.3867 155.086 93.2258 155.533 92.9249L161.553 95.7249C161.564 96.0844 161.646 96.4381 161.796 96.7654C161.945 97.0927 162.158 97.3871 162.422 97.6312C162.686 97.8754 162.996 98.0645 163.334 98.1876C163.672 98.3106 164.031 98.3652 164.39 98.348C164.75 98.3308 165.102 98.2422 165.426 98.0874C165.751 97.9326 166.042 97.7148 166.281 97.4465C166.521 97.1782 166.705 96.8649 166.822 96.5249C166.939 96.1848 166.987 95.8248 166.964 95.4659C166.938 94.9632 166.77 94.478 166.481 94.0659L169.855 87.6609Z" fill="#263238"/>
<path d="M175.819 137.389C174.723 137.391 173.673 137.828 172.898 138.603C172.124 139.379 171.689 140.43 171.689 141.526V177.373C171.689 178.468 172.124 179.519 172.899 180.293C173.673 181.068 174.724 181.503 175.819 181.503H219.219C220.315 181.503 221.366 181.068 222.142 180.294C222.917 179.519 223.354 178.469 223.356 177.373V141.505C223.354 140.409 222.917 139.359 222.142 138.584C221.366 137.81 220.315 137.375 219.219 137.375L175.819 137.389Z" stroke="#263238" stroke-linejoin="round"/>
<path d="M178.409 142.275H175.112V142.716H178.409V142.275Z" fill="#263238"/>
<path d="M178.409 145.873H175.112V146.314H178.409V145.873Z" fill="#263238"/>
<path d="M178.409 149.471H175.112V149.912H178.409V149.471Z" fill="#263238"/>
<path d="M178.409 153.076H175.112V153.517H178.409V153.076Z" fill="#263238"/>
<path d="M178.283 145.873H174.986V146.314H178.283V145.873Z" fill="#263238"/>
<path d="M178.409 156.674H175.112V157.115H178.409V156.674Z" fill="#263238"/>
<path d="M200.032 176.148C203.16 176.213 206.238 175.348 208.874 173.663C211.511 171.977 213.588 169.548 214.843 166.682C216.098 163.815 216.475 160.641 215.925 157.561C215.376 154.48 213.925 151.632 211.756 149.377C209.587 147.122 206.797 145.561 203.741 144.891C200.684 144.222 197.498 144.475 194.585 145.617C191.672 146.76 189.163 148.741 187.376 151.31C185.59 153.878 184.605 156.92 184.548 160.048C184.469 164.235 186.056 168.283 188.959 171.302C191.862 174.32 195.845 176.063 200.032 176.148V176.148ZM200.585 149.17C202.8 149.215 204.952 149.915 206.768 151.183C208.585 152.451 209.985 154.229 210.791 156.292C211.597 158.356 211.773 160.612 211.297 162.775C210.821 164.939 209.714 166.912 208.116 168.447C206.518 169.981 204.501 171.007 202.32 171.395C200.139 171.783 197.892 171.515 195.863 170.626C193.834 169.736 192.114 168.266 190.921 166.399C189.728 164.532 189.116 162.354 189.161 160.139C189.222 157.17 190.459 154.346 192.602 152.289C194.744 150.232 197.616 149.11 200.585 149.17Z" fill="#F1F1F1"/>
<path opacity="0.2" d="M200.032 176.148C203.16 176.213 206.238 175.348 208.874 173.663C211.511 171.977 213.588 169.548 214.843 166.682C216.098 163.815 216.475 160.641 215.925 157.561C215.376 154.48 213.925 151.632 211.756 149.377C209.587 147.122 206.797 145.561 203.741 144.891C200.684 144.222 197.498 144.475 194.585 145.617C191.672 146.76 189.163 148.741 187.376 151.31C185.59 153.878 184.605 156.92 184.548 160.048C184.469 164.235 186.056 168.283 188.959 171.302C191.862 174.32 195.845 176.063 200.032 176.148V176.148ZM200.585 149.17C202.8 149.215 204.952 149.915 206.768 151.183C208.585 152.451 209.985 154.229 210.791 156.292C211.597 158.356 211.773 160.612 211.297 162.775C210.821 164.939 209.714 166.912 208.116 168.447C206.518 169.981 204.501 171.007 202.32 171.395C200.139 171.783 197.892 171.515 195.863 170.626C193.834 169.736 192.114 168.266 190.921 166.399C189.728 164.532 189.116 162.354 189.161 160.139C189.222 157.17 190.459 154.346 192.602 152.289C194.744 150.232 197.616 149.11 200.585 149.17Z" fill="#181818"/>
<path d="M189 171.654C190.489 173.156 192.258 174.35 194.209 175.167C196.159 175.985 198.251 176.411 200.365 176.42C202.48 176.429 204.575 176.021 206.532 175.22C208.489 174.419 210.269 173.241 211.771 171.752C211.826 171.69 211.856 171.611 211.856 171.528C211.856 171.445 211.826 171.366 211.771 171.304L208.488 168C208.459 167.97 208.424 167.945 208.386 167.928C208.347 167.912 208.306 167.903 208.264 167.902C208.179 167.907 208.098 167.939 208.033 167.993C207.001 169.028 205.768 169.842 204.41 170.385C203.053 170.928 201.599 171.188 200.137 171.15H199.36C196.984 171.017 194.718 170.104 192.913 168.553C192.752 168.406 192.584 168.259 192.43 168.105C190.586 166.264 189.452 163.83 189.228 161.234C189.003 158.638 189.704 156.046 191.205 153.916C191.219 153.897 191.231 153.875 191.24 153.853C191.31 153.755 191.387 153.671 191.471 153.573C192.547 152.209 193.936 151.125 195.52 150.411C197.104 149.697 198.836 149.375 200.571 149.471C200.612 149.472 200.653 149.465 200.692 149.45C200.731 149.435 200.766 149.412 200.796 149.384C200.826 149.355 200.85 149.321 200.866 149.283C200.883 149.245 200.892 149.204 200.893 149.163L200.984 144.522C200.986 144.438 200.955 144.356 200.897 144.295C200.84 144.233 200.76 144.197 200.676 144.193V144.193C197.472 144.139 194.324 145.043 191.636 146.788C188.949 148.534 186.843 151.042 185.589 153.991C184.335 156.94 183.99 160.197 184.598 163.343C185.205 166.49 186.738 169.384 189 171.654V171.654Z" fill="#263238"/>
<path d="M200.683 144.2C205.046 144.205 209.229 145.942 212.312 149.029C215.394 152.117 217.125 156.303 217.122 160.666C217.12 165.029 215.385 169.213 212.299 172.297C209.213 175.381 205.029 177.114 200.665 177.114C196.302 177.114 192.118 175.381 189.032 172.297C185.946 169.213 184.211 165.029 184.208 160.666C184.206 156.303 185.937 152.117 189.019 149.029C192.102 145.942 196.285 144.205 200.648 144.2H200.683ZM200.039 175.819C203.104 175.882 206.119 175.035 208.702 173.384C211.285 171.734 213.321 169.354 214.552 166.547C215.783 163.739 216.153 160.63 215.617 157.611C215.08 154.593 213.66 151.802 211.537 149.591C209.414 147.379 206.683 145.847 203.689 145.188C200.695 144.53 197.573 144.773 194.718 145.889C191.862 147.005 189.402 148.942 187.648 151.456C185.894 153.97 184.925 156.948 184.863 160.013C184.78 164.122 186.333 168.095 189.178 171.06C192.024 174.026 195.93 175.74 200.039 175.826V175.819ZM200.592 148.841C202.865 148.887 205.073 149.606 206.937 150.907C208.801 152.209 210.238 154.033 211.065 156.151C211.892 158.269 212.073 160.584 211.584 162.804C211.095 165.024 209.959 167.05 208.319 168.624C206.679 170.199 204.608 171.251 202.37 171.649C200.132 172.047 197.826 171.772 195.744 170.859C193.662 169.947 191.897 168.437 190.673 166.521C189.449 164.606 188.82 162.37 188.867 160.097C188.929 157.05 190.2 154.152 192.399 152.041C194.597 149.93 197.545 148.779 200.592 148.841V148.841ZM200.137 171.178C202.284 171.222 204.396 170.628 206.205 169.472C208.015 168.315 209.441 166.648 210.303 164.681C211.165 162.715 211.424 160.536 211.048 158.422C210.672 156.308 209.677 154.353 208.19 152.804C206.703 151.255 204.79 150.182 202.692 149.72C200.595 149.258 198.408 149.429 196.408 150.211C194.408 150.992 192.684 152.349 191.455 154.11C190.226 155.871 189.547 157.957 189.504 160.104V160.104C189.448 162.981 190.536 165.763 192.53 167.838C194.524 169.913 197.26 171.112 200.137 171.171V171.178Z" fill="#263238"/>
<path d="M118.769 194.691V237.153" stroke="#263238" stroke-width="0.879169" stroke-linecap="round" stroke-linejoin="round"/>
<path d="M125.594 210.714H121.989V235.025H125.594V210.714Z" fill="#263238"/>
<path d="M130.746 220.633H127.141V235.018H130.746V220.633Z" fill="#F1F1F1"/>
<path d="M136.801 202.853H133.196V235.025H136.801V202.853Z" fill="white" stroke="#263238" stroke-width="0.879169" stroke-linejoin="round"/>
<path d="M146.853 198.212H143.248V235.018H146.853V198.212Z" fill="#263238"/>
<path d="M152.012 225.918H148.407V235.025H152.012V225.918Z" fill="#F1F1F1"/>
<path d="M158.067 213.29H154.462V235.025H158.067V213.29Z" fill="white" stroke="#263238" stroke-width="0.879169" stroke-linejoin="round"/>
<path d="M172.753 216.615H169.148V235.018H172.753V216.615Z" fill="#263238"/>
<path d="M177.912 202.335H174.307V235.018H177.912V202.335Z" fill="#F1F1F1"/>
<path d="M183.967 209.552H180.362V235.018H183.967V209.552Z" fill="white" stroke="#263238" stroke-width="0.879169" stroke-linejoin="round"/>
<path d="M114.898 229.397H116.914" stroke="#263238" stroke-width="0.879169" stroke-linecap="round" stroke-linejoin="round"/>
<path d="M114.898 224.154H116.914" stroke="#263238" stroke-width="0.879169" stroke-linecap="round" stroke-linejoin="round"/>
<path d="M114.898 218.918H116.914" stroke="#263238" stroke-width="0.879169" stroke-linecap="round" stroke-linejoin="round"/>
<path d="M114.898 213.675H116.914" stroke="#263238" stroke-width="0.879169" stroke-linecap="round" stroke-linejoin="round"/>
<path d="M114.898 208.432H116.914" stroke="#263238" stroke-width="0.879169" stroke-linecap="round" stroke-linejoin="round"/>
<path d="M114.898 203.189H116.914" stroke="#263238" stroke-width="0.879169" stroke-linecap="round" stroke-linejoin="round"/>
<path d="M114.898 197.946H116.914" stroke="#263238" stroke-width="0.879169" stroke-linecap="round" stroke-linejoin="round"/>
<path d="M116.382 235.025H186.494" stroke="#263238" stroke-width="0.879169" stroke-linecap="round" stroke-linejoin="round"/>
<path opacity="0.3" d="M130.746 220.633H127.141V235.018H130.746V220.633Z" fill="#181818"/>
<path opacity="0.3" d="M152.012 225.918H148.407V235.025H152.012V225.918Z" fill="#181818"/>
<path opacity="0.3" d="M177.912 202.335H174.307V235.018H177.912V202.335Z" fill="#181818"/>
<path d="M112.035 188.797C110.827 188.799 109.669 189.28 108.815 190.134C107.961 190.988 107.48 192.146 107.478 193.354V235.011C107.48 236.22 107.96 237.378 108.814 238.234C109.668 239.089 110.826 239.571 112.035 239.575H189.35C190.559 239.571 191.718 239.089 192.573 238.234C193.428 237.379 193.91 236.22 193.914 235.011V193.34C193.912 192.13 193.431 190.97 192.575 190.115C191.72 189.259 190.56 188.778 189.35 188.776L112.035 188.797Z" stroke="#263238" stroke-linejoin="round"/>
<path d="M50.855 281.918C50.855 281.918 52.472 292.712 48.559 293.818C44.646 294.924 41.93 293.468 41.44 291.851C40.95 290.234 44.415 278.684 44.415 278.684L50.855 281.918Z" fill="white"/>
<path d="M118.916 284.305L135.926 288.337C135.926 288.337 137.214 289.037 137.074 290.192C136.934 291.347 129.171 294.308 126.994 294.679C124.817 295.05 112.252 296.688 110.467 295.155C108.682 293.622 112.455 281.4 112.455 281.4L118.916 284.305Z" fill="white"/>
<path d="M88.116 87.444C88.116 87.444 90.51 91.056 90.545 92.883C90.58 94.71 90.356 96.796 91.476 97.874C92.596 98.952 93.457 100.128 92.995 100.674C92.533 101.22 91.644 102.284 91.644 102.284C91.644 102.284 92.799 108.437 91.301 109.55C89.803 110.663 85.302 109.55 85.302 109.55V113.526C85.302 113.526 78.904 111.426 74.487 111.818L73.703 103.299C73.703 103.299 83.3 84.847 88.116 87.444Z" fill="white"/>
<path d="M127.47 112.616C127.47 112.616 126.896 108.248 129.024 105.616C129.024 105.616 126.476 105.182 126.784 104.258C127.092 103.334 130.984 104.545 130.984 104.545L129.934 102.445C129.934 102.445 126.259 101.227 126.714 100.086C127.169 98.945 132.559 101.752 132.559 101.752C132.559 101.752 129.36 99.078 129.808 97.965C130.256 96.852 133.511 96.873 135.247 102.641L136.129 101.542C136.129 101.542 136.444 94.976 137.347 94.619C137.347 94.619 138.747 95.389 138.747 99.162C138.747 99.162 140.147 100.849 139.258 102.277C138.369 103.705 136.276 106.918 134.498 108.122C132.72 109.326 132.727 114.023 132.727 114.023L127.47 112.616Z" fill="white"/>
<path d="M71.134 76.713L71.939 75.635C71.939 75.635 80.948 71.617 80.724 70.364C80.5 69.111 75.397 70.84 74.424 70.175C74.424 70.175 75.355 58.317 74.424 57.932C73.493 57.547 72.457 63.497 72.457 63.497C72.457 63.497 71.148 57.393 70.14 57.568C69.132 57.743 69.552 63.868 69.552 63.868C69.552 63.868 67.627 59.941 66.878 60.305C66.129 60.669 67.249 65.457 67.249 65.457C67.249 65.457 65.849 63.812 65.289 64.309C65.4735 66.7823 66.1518 69.1934 67.284 71.4L65.338 74.69L71.134 76.713Z" fill="white"/>
<path d="M126.497 112.644L132.706 113.512C132.706 113.512 128.163 152.012 126.826 156.765C125.489 161.518 124.285 164.934 119.721 165.165C115.157 165.396 98.896 151.725 98.896 151.725L98.14 170.625L99.197 178.465C99.197 178.465 79.31 188.916 59.087 179.823L59.542 170.625L52.255 128.555L46.522 108.577L65.023 73.5L71.729 77L59.899 108.927L63.21 119.588L66.913 118.104L71.008 112.882C71.008 112.882 77.952 109.277 86.737 114.282L88.137 118.664C88.137 118.664 98.441 119.441 115.836 143.556L126.497 112.644Z" fill="#F1F1F1"/>
<path opacity="0.2" d="M82.11 112.644L82.894 118.034C82.894 118.034 88.676 121.87 91 123.2C91 123.2 96.684 159.096 92.477 166.159L88.046 173.096C88.046 173.096 92.575 173.096 94.661 169.925C94.661 169.925 92.064 178.591 85.33 180.922C85.33 180.922 95.669 179.844 99.225 178.472L98.168 170.632L99.869 126.917C99.869 126.917 101.472 123.991 88.144 118.748L86.177 114.023L82.11 112.644Z" fill="#181818"/>
<path d="M88.116 87.9341C88.116 87.9341 90.286 91.1121 90.545 92.8831C90.804 94.6541 90.034 96.6071 91.476 97.8741C92.918 99.1411 93.576 99.9741 92.995 100.674C92.414 101.374 91.644 102.284 91.644 102.284C91.644 102.284 92.232 108.283 91.301 109.55C90.37 110.817 85.302 109.55 85.302 109.55V113.526" stroke="#263238" stroke-linecap="round" stroke-linejoin="round"/>
<path d="M85.302 102.018C85.302 102.018 83.272 96.775 81.753 98.042C80.234 99.309 81.585 106.239 85.302 104.72" stroke="#263238" stroke-linecap="round" stroke-linejoin="round"/>
<path d="M84.749 100.8C84.749 100.8 87.164 100.604 85.638 94.9411C84.112 89.2781 87.416 90.0411 90.965 88.4311C94.514 86.8211 95.361 83.8671 94.598 82.0961C93.835 80.3251 92.568 79.3871 88.088 80.2341C88.088 80.2341 83.188 74.5711 78.456 80.8291C78.456 80.8291 67.802 80.6611 64.932 85.7291C62.062 90.7971 65.863 103.733 71.442 108.045C77.021 112.357 82.474 108.906 83.608 104.853C83.608 104.853 79.807 102.802 81.753 98.0701C81.753 98.0421 83.524 97.4121 84.749 100.8Z" fill="#263238"/>
<path d="M51.702 125.363C51.702 125.363 77.483 106.666 99.953 125.363L98.14 170.597L99.197 178.437C99.197 178.437 80.199 187.334 59.087 179.795L59.542 170.597L51.702 125.363Z" stroke="#263238" stroke-linecap="round" stroke-linejoin="round"/>
<path d="M66.5699 118.566L71.008 112.91C71.008 112.91 79.709 109.9 86.737 114.31L88.137 118.692" stroke="#263238" stroke-linecap="round" stroke-linejoin="round"/>
<path d="M99.9529 125.363L122.402 151.179" stroke="#263238" stroke-linecap="round" stroke-linejoin="round"/>
<path d="M98.917 151.2C98.917 151.2 113.792 165.039 119.721 165.2C125.65 165.361 126.637 158.2 126.637 158.2L132.706 113.54L126.497 112.672L115.815 143.633" stroke="#263238" stroke-linecap="round" stroke-linejoin="round"/>
<path d="M132.601 113.4C132.601 113.4 133.378 108.353 135.401 107.205C137.424 106.057 139.825 101.605 139.055 100.324C138.285 99.0431 135.933 103.208 133.812 104.006C131.691 104.804 129.969 108.724 129.675 110.425" stroke="#263238" stroke-linecap="round" stroke-linejoin="round"/>
<path d="M138.404 100.142C138.404 100.142 138.404 94.311 137.333 94.584C136.262 94.857 136.115 102.242 136.115 102.242" stroke="#263238" stroke-linecap="round" stroke-linejoin="round"/>
<path d="M135.331 102.991C135.331 102.991 134.631 99.722 132.706 98.126C130.781 96.53 129.577 97.391 129.794 97.93C130.011 98.469 133.294 102.83 133.217 104.314" stroke="#263238" stroke-linecap="round" stroke-linejoin="round"/>
<path d="M131.999 101.374C131.999 101.374 126.714 98.952 126.7 100.401C126.686 101.85 129.92 102.41 129.92 102.41L130.97 104.51C130.97 104.51 126.518 103.11 126.77 104.223C127.022 105.336 129.01 105.581 129.01 105.581C129.01 105.581 126.847 107.723 127.456 112.581" stroke="#263238" stroke-linecap="round" stroke-linejoin="round"/>
<path d="M96.138 178.962L97.489 188.426C97.489 188.426 109.928 225.743 111.818 233.037C113.708 240.331 114.793 256.837 115.318 264.404C115.843 271.971 120.218 284.704 120.218 284.704C120.218 284.704 119.679 289.842 110.488 289.03C110.488 289.03 106.701 273.889 102.648 264.964C98.595 256.039 98 242.501 98 242.501L78.26 206.269C78.26 206.269 74.221 227.367 71.505 235.2C68.705 243.278 49.616 288.099 50.953 284.956C50.953 284.956 48.251 286.58 42.553 282.52C42.553 282.52 46.606 269.003 47.684 261.702C48.762 254.401 54.446 237.636 54.446 237.636C54.446 237.636 55.797 206.003 57.946 196.266C57.946 196.266 56.546 185.542 59.535 177.968C71.3822 181.837 84.0982 182.183 96.138 178.962V178.962Z" fill="#263238"/>
<path d="M67.445 199.913L76.307 202.489L77.595 205.632" stroke="white" stroke-linecap="round" stroke-linejoin="round"/>
<path d="M110.684 287.924C110.684 287.924 109.487 293.923 110.467 295.155C110.985 295.799 112.525 295.68 113.267 295.694C114.975 295.729 116.69 295.617 118.398 295.505C121.814 295.281 125.314 295.316 128.611 294.259C131.389 293.424 134.042 292.221 136.5 290.682C137.844 289.786 136.5 288.337 136.5 288.337L120.225 284.683" stroke="#263238" stroke-linecap="round" stroke-linejoin="round"/>
<path d="M110.6 293.041C110.6 293.041 128.891 296.044 136.5 288.337" stroke="#263238" stroke-linecap="round" stroke-linejoin="round"/>
<path d="M43.26 281.918C43.26 281.918 41.16 289.121 41.468 291.389C41.776 293.657 44.051 294.189 46.711 294.126C49.371 294.063 50.463 292.873 50.855 291.074C51.247 289.275 50.855 283.458 50.855 283.458" stroke="#263238" stroke-linecap="round" stroke-linejoin="round"/>
<path d="M41.4399 290.29L50.8549 291.074" stroke="#263238" stroke-linecap="round" stroke-linejoin="round"/>
<path d="M66.017 73.724C66.815 72.268 67.284 71.379 67.284 71.379C67.284 71.379 64.687 65.1 65.338 64.33C65.989 63.56 67.494 65.73 67.494 65.73C67.494 65.73 65.954 60.739 66.927 60.312C67.9 59.885 69.636 64.512 69.636 64.512C69.636 64.512 69.181 57.827 70.189 57.512C71.197 57.197 72.408 63.868 72.408 63.868C72.408 63.868 73.71 57.932 74.508 57.876C75.306 57.82 74.508 70.119 74.508 70.119C76.118 70.91 80.85 68.978 80.808 70.539C80.766 72.1 71.708 75.691 71.708 75.691C71.5495 75.8966 71.4112 76.117 71.295 76.349" stroke="#263238" stroke-linecap="round" stroke-linejoin="round"/>
<path d="M51.702 125.363L46.522 108.577L65.023 73.521L71.729 77.028L59.899 108.955L63.21 119.616" stroke="#263238" stroke-linecap="round" stroke-linejoin="round"/>
<path d="M52.304 105.924C52.304 105.924 58.94 105.868 59.899 108.955C56.992 108.793 54.1124 109.59 51.702 111.223" stroke="#263238" stroke-linecap="round" stroke-linejoin="round"/>
<path d="M74.228 112.182V107.317" stroke="#263238" stroke-linecap="round" stroke-linejoin="round"/>
<path opacity="0.2" d="M99.841 138.901L101.5 149.94C101.5 149.94 102.858 142.737 103.705 142.737C104.552 142.737 103.705 151.179 103.705 151.179C103.705 151.179 117.621 163.779 123.641 163.849C123.641 163.849 120.295 166.201 116.942 164.451C113.589 162.701 98.889 151.151 98.889 151.151L99.841 138.901Z" fill="#181818"/>
<path opacity="0.2" d="M70.539 76.405L57.813 107.317C57.813 107.317 53.382 107.247 51.702 111.223L58.506 110.005L60.795 120.505L63.21 119.588L59.899 108.927L71.729 77L70.539 76.405Z" fill="#181818"/>
<path d="M245.917 130.767L240.905 120.064L221.207 133.077L237.461 161.875L250.138 154.679L245.917 130.767Z" fill="white"/>
<path d="M262.15 223.342C262.15 223.342 265.335 232.183 265.804 236.488C266.273 240.793 264.838 258.923 265.146 263.921C265.454 268.919 268.156 283.836 268.156 283.836C268.156 283.836 254.905 293.468 250.698 290.367C250.698 290.367 260.036 282.807 260.981 279.797L257.957 259.364L254.954 235.2C254.954 235.2 254.191 230.153 253.127 227.556C252.063 224.959 252.224 219.45 252.224 219.45L262.15 223.342Z" fill="white"/>
<path d="M261.87 222.558C261.87 222.558 265.314 231.868 266.119 238.553C266.924 245.238 264.502 260.4 265.3 267.701C266.098 275.002 266.917 279.041 268.331 282.884L267.631 294.161H265.818L265.118 287.763C265.118 287.763 262.276 286.58 260.554 290.675C258.832 294.77 252.469 295.309 249.452 292.936C249.452 292.936 249.452 291.102 251.72 289.485C253.988 287.868 259.91 282.814 260.988 279.797C260.988 279.797 257.754 258.797 256.998 251.993C256.242 245.189 255.059 232.82 253.547 228.83C252.035 224.84 252.042 219.135 252.042 219.135" stroke="#263238" stroke-linecap="round" stroke-linejoin="round"/>
<path d="M267.638 280.77C267.638 280.77 258.755 290.43 251.3 290.367" stroke="#263238" stroke-linecap="round" stroke-linejoin="round"/>
<path d="M250.698 290.367C251.93 290.504 253.177 290.348 254.338 289.912C256.347 289.212 263.578 285.712 267.134 281.295L268.226 282.534L267.652 293.902L265.825 294.161L265.125 287.763C265.125 287.763 262.787 286.692 261.282 289.324C259.777 291.956 258.692 293.762 256.06 294.343C253.428 294.924 249.459 292.943 249.459 292.943C249.459 292.943 248.766 291.9 250.698 290.367Z" fill="#263238"/>
<path d="M268.345 223.643C269.18 226.712 270.194 229.73 271.383 232.68C272.972 236.327 286.699 273.21 286.699 273.21C286.699 273.21 287.742 293.174 293.587 293.111C299.432 293.048 293.356 279.16 293.356 279.16L289.8 271.551C289.8 271.551 288.442 249.2 286.762 240.982L279.608 221.711L268.345 223.643Z" fill="white"/>
<path d="M279.685 222.355C279.685 222.355 285.558 235.718 286.769 240.982C287.98 246.246 289.198 269.927 289.807 271.551C290.416 273.175 300.132 290.374 294.259 293.818C288.386 297.262 287 273.98 287 273.98C287 273.98 273.441 236.32 271.411 232.68C269.381 229.04 267.162 218.505 267.162 218.505L279.685 222.355Z" stroke="#263238" stroke-linecap="round" stroke-linejoin="round"/>
<path d="M295.4 284.991C295.4 284.991 294.994 289.653 293.454 290.311C291.914 290.969 288.512 285.712 288.512 285.712" stroke="#263238" stroke-linecap="round" stroke-linejoin="round"/>
<path d="M288.526 286.517C288.526 286.517 290.626 294.469 293.426 294.133C296.226 293.797 296.73 289.38 295.407 285.971C295.407 285.971 294.938 289.471 293.461 290.311C291.97 290.332 288.526 286.517 288.526 286.517Z" fill="#263238"/>
<path d="M263.739 152.845C263.739 152.845 270.816 162.505 275.723 178.045C280.63 193.585 280.126 223.349 280.126 223.349C280.126 223.349 261.863 229.222 244.16 221.76L247.401 154.7C247.401 154.7 258.79 154.91 263.739 152.845Z" fill="#263238"/>
<path d="M254.597 82.7891C254.597 82.7891 249.095 87.9411 248.451 91.3151C247.92 93.6767 247.067 95.9542 245.917 98.0841C246.509 98.9796 247.376 99.6579 248.388 100.016C248.388 100.016 248.745 106.925 250.754 107.457L255.556 106.197L256.067 109.158L262.955 106.54V102.55L268.205 99.1201L266.336 90.1531L257.796 86.1631L254.597 82.7891Z" fill="white"/>
<path d="M247.366 154.161L246.757 144.473C246.757 144.473 242.277 136.073 243.698 133.021C245.266 129.668 254.688 117.25 254.688 117.25L253.764 110.474L266.966 104.818L267.596 110.474L266 111.657L267.771 115.451C267.771 115.451 267.883 114.324 270.949 120.043C274.015 125.762 285.565 146.111 286.475 150.017C287.385 153.923 268.513 167.685 262.143 170.933C262.143 170.933 261.408 169.358 253.841 175.133C251.916 174.797 249.256 173.068 248.689 171.997C248.122 170.926 250.866 168.378 250.866 168.378C250.866 168.378 252.518 165.256 255.437 167.755H258.545L276.332 151.2L267.316 138.005L263.739 152.824C263.739 152.824 252.168 156.338 247.366 154.161Z" fill="white"/>
<path d="M253.764 110.474L254.709 117.397L267.596 110.474L266.966 104.818L253.764 110.474Z" stroke="#263238" stroke-linecap="round" stroke-linejoin="round"/>
<path d="M254.709 117.397C254.709 117.397 242.984 131.74 243.299 134.568C243.614 137.396 246.757 144.473 246.757 144.473L247.401 154.693C247.401 154.693 256.886 154.952 263.739 152.845L267.316 138.026" stroke="#263238" stroke-linecap="round" stroke-linejoin="round"/>
<path d="M276.332 151.2L258.167 123.816C258.167 123.816 256.382 117.516 260.68 115.269C264.978 113.022 268.716 115.871 270.053 117.369C271.39 118.867 285.81 146.65 286.482 149.989C287.154 153.328 271.922 166.684 263.109 170.289C263.109 170.289 259.098 172.697 259.098 167.755L276.332 151.2Z" stroke="#263238" stroke-linecap="round" stroke-linejoin="round"/>
<path d="M267.596 115.451L265.895 111.391" stroke="#263238" stroke-linecap="round" stroke-linejoin="round"/>
<path d="M259.098 167.783H255.444C255.444 167.783 252.595 165.235 251.244 167.783C249.893 170.331 248.185 170.835 248.696 172.025C249.207 173.215 252.133 175.588 253.848 175.161C255.563 174.734 260.4 170.8 260.4 170.8" stroke="#263238" stroke-linecap="round" stroke-linejoin="round"/>
<path d="M253.281 84.6021C253.281 84.6021 248.99 88.3541 248.514 90.4331C248.038 92.5121 248.241 96.0331 245.917 98.0841C245.917 98.0841 246.036 99.7641 248.388 100.016C248.388 100.016 249.592 106.645 250.754 107.457C251.916 108.269 259.028 104.601 261.814 103.089C262.525 102.602 263.042 101.881 263.277 101.052" stroke="#263238" stroke-linecap="round" stroke-linejoin="round"/>
<path d="M249.949 102.039C251.264 101.817 252.451 101.116 253.281 100.072" stroke="#263238" stroke-linecap="round" stroke-linejoin="round"/>
<path d="M249.949 92.4491C249.949 92.4491 251.643 91.4621 252.574 93.1001" stroke="#263238" stroke-linecap="round" stroke-linejoin="round"/>
<path d="M251.111 95.9701C251.111 96.5371 250.95 96.9991 250.691 97.0131C250.432 97.0271 250.194 96.5791 250.166 96.0191C250.138 95.4591 250.327 94.9831 250.586 94.9691C250.845 94.9551 251.083 95.4031 251.111 95.9701Z" fill="#263238"/>
<path d="M255.556 106.197L256.123 109.466" stroke="#263238" stroke-linecap="round" stroke-linejoin="round"/>
<path d="M261.058 95.536C261.058 95.536 262.108 93.499 263.277 94.689C264.446 95.879 266.665 101.381 260.68 100.072C260.68 100.072 260.281 103.432 263.277 104.272C266.273 105.112 271.964 100.478 272.153 92.575C272.342 84.672 264.712 79.338 260.68 80.864C260.68 80.864 254.835 71.701 249.039 75.607C243.243 79.513 247.149 85.526 245.917 86.884C244.685 88.242 242.053 86.968 241.969 90.615C241.885 94.262 247.982 93.891 247.982 93.891L248.717 89.873L253.764 84.602C253.764 84.602 252.574 88.41 254.597 91.721C256.424 94.703 261.058 95.536 261.058 95.536Z" fill="#263238"/>
<path d="M272.153 92.5751C272.153 92.5751 274.953 93.205 274.645 96.9921C274.337 100.779 268.016 110.089 268.492 115.451L284.809 145.859C284.809 145.859 292.152 144.459 291.809 136.899C291.466 129.339 282.506 122.969 284.235 117.397C285.964 111.825 292.754 97.6361 283.136 89.5021C273.518 81.3681 258.524 93.8351 258.524 93.8351L265.867 91.469L272.153 92.5751Z" fill="#263238"/>
<path d="M245.287 130.144L240.905 120.064L221.207 133.077L237.461 161.875L247.317 156.45" stroke="#263238" stroke-linecap="round" stroke-linejoin="round"/>
<path d="M227.339 147.322C227.339 147.322 226.275 145.124 227.696 143.913C229.117 142.702 233.996 139.111 233.996 139.993C234.028 140.207 234.015 140.426 233.957 140.634C233.899 140.843 233.798 141.037 233.66 141.204C232.26 143.08 228.907 146.104 229.124 146.349C229.124 146.349 235.242 142.289 235.83 142.674C235.977 142.772 235.893 143.297 235.382 143.808C233.705 145.3 231.935 146.684 230.083 147.952C230.083 147.952 236.537 145.453 237.37 145.852C237.608 145.964 237.559 146.328 236.81 146.783C234.936 147.802 233.008 148.718 231.035 149.527L232.652 152.229C232.652 152.229 229.6 152.761 227.339 147.322Z" fill="white" stroke="#263238" stroke-linecap="round" stroke-linejoin="round"/>
<path d="M262.507 102.039L262.955 106.54" stroke="#263238" stroke-linejoin="round"/>
</svg>
