<svg width="350" height="350" viewBox="0 0 350 350" fill="none" xmlns="http://www.w3.org/2000/svg">
<path d="M297.199 153.839C298.27 124.845 287.854 95.5009 264.894 81.5359C253.561 74.6409 240.31 70.6019 227.052 71.1969C212.828 71.8339 199.437 77.6229 186.025 82.3969C172.613 87.1709 158.088 90.9859 144.263 87.5979C134.26 85.1479 125.461 79.0929 115.563 76.3349C76.566 65.4779 42.609 109.725 61.691 144.9C66.374 153.524 73.591 160.44 79.66 168.161C85.729 175.882 90.818 185.206 89.999 194.985C89.299 203.084 84.707 210.294 82.796 218.19C79.142 233.317 86.394 249.956 98.931 259.175C111.468 268.394 128.38 270.543 143.5 266.749C158.62 262.955 171.92 253.673 182.399 242.179C187.999 236.019 193.487 228.823 201.544 226.73C209.279 224.728 217.252 227.99 225.099 229.488C232.354 230.83 239.806 230.678 247 229.041C254.194 227.404 260.978 224.317 266.938 219.968C285.873 205.961 296.233 180.04 297.199 153.839Z" fill="#F1F1F1"/>
<path opacity="0.7" d="M297.199 153.839C298.27 124.845 287.854 95.5009 264.894 81.5359C253.561 74.6409 240.31 70.6019 227.052 71.1969C212.828 71.8339 199.437 77.6229 186.025 82.3969C172.613 87.1709 158.088 90.9859 144.263 87.5979C134.26 85.1479 125.461 79.0929 115.563 76.3349C76.566 65.4779 42.609 109.725 61.691 144.9C66.374 153.524 73.591 160.44 79.66 168.161C85.729 175.882 90.818 185.206 89.999 194.985C89.299 203.084 84.707 210.294 82.796 218.19C79.142 233.317 86.394 249.956 98.931 259.175C111.468 268.394 128.38 270.543 143.5 266.749C158.62 262.955 171.92 253.673 182.399 242.179C187.999 236.019 193.487 228.823 201.544 226.73C209.279 224.728 217.252 227.99 225.099 229.488C232.354 230.83 239.806 230.678 247 229.041C254.194 227.404 260.978 224.317 266.938 219.968C285.873 205.961 296.233 180.04 297.199 153.839Z" fill="white"/>
<path d="M272.951 43.7151H204.708C202.377 43.7151 200.487 45.6049 200.487 47.9361V123.165C200.487 125.496 202.377 127.386 204.708 127.386H272.951C275.282 127.386 277.172 125.496 277.172 123.165V47.9361C277.172 45.6049 275.282 43.7151 272.951 43.7151Z" fill="white" stroke="#263238" stroke-linecap="round" stroke-linejoin="round"/>
<path d="M204.708 43.715H272.944C274.058 43.715 275.126 44.1575 275.914 44.9452C276.701 45.7328 277.144 46.8011 277.144 47.915V52.297H200.487V47.936C200.484 47.3809 200.591 46.8308 200.803 46.3174C201.014 45.8041 201.325 45.3376 201.717 44.9451C202.11 44.5526 202.576 44.2418 203.089 44.0307C203.603 43.8195 204.153 43.7122 204.708 43.715V43.715Z" fill="#263238" stroke="#263238" stroke-linecap="round" stroke-linejoin="round"/>
<path d="M204.666 88.389H235.522" stroke="#263238" stroke-linecap="round" stroke-linejoin="round"/>
<path d="M204.666 92.3721H235.522" stroke="#263238" stroke-linecap="round" stroke-linejoin="round"/>
<path d="M204.666 96.355H235.522" stroke="#263238" stroke-linecap="round" stroke-linejoin="round"/>
<path d="M204.666 100.338H235.522" stroke="#263238" stroke-linecap="round" stroke-linejoin="round"/>
<path d="M204.666 104.321H235.522" stroke="#263238" stroke-linecap="round" stroke-linejoin="round"/>
<path d="M204.666 108.311H235.522" stroke="#263238" stroke-linecap="round" stroke-linejoin="round"/>
<path d="M204.666 112.294H235.522" stroke="#263238" stroke-linecap="round" stroke-linejoin="round"/>
<path d="M204.666 116.277H235.522" stroke="#263238" stroke-linecap="round" stroke-linejoin="round"/>
<path d="M204.666 120.26H235.522" stroke="#263238" stroke-linecap="round" stroke-linejoin="round"/>
<path d="M240.947 88.389H271.803" stroke="#263238" stroke-linecap="round" stroke-linejoin="round"/>
<path d="M240.947 92.3721H271.803" stroke="#263238" stroke-linecap="round" stroke-linejoin="round"/>
<path d="M240.947 96.355H271.803" stroke="#263238" stroke-linecap="round" stroke-linejoin="round"/>
<path d="M240.947 100.338H271.803" stroke="#263238" stroke-linecap="round" stroke-linejoin="round"/>
<path d="M240.947 104.321H271.803" stroke="#263238" stroke-linecap="round" stroke-linejoin="round"/>
<path d="M240.947 108.311H271.803" stroke="#263238" stroke-linecap="round" stroke-linejoin="round"/>
<path d="M240.947 112.294H271.803" stroke="#263238" stroke-linecap="round" stroke-linejoin="round"/>
<path d="M240.947 116.277H271.803" stroke="#263238" stroke-linecap="round" stroke-linejoin="round"/>
<path d="M240.947 120.26H271.803" stroke="#263238" stroke-linecap="round" stroke-linejoin="round"/>
<path d="M225.302 63.168C225.454 62.695 225.534 62.2018 225.54 61.705C225.54 59.892 223.699 59.787 221.893 59.787H221.438V59.36H229.32V59.787C227.269 59.787 226.52 61.096 225.883 63.035L221.683 75.572C221.368 76.503 221.102 77.196 220.115 77.196H220.031L216.335 65.219L212.898 75.6C212.576 76.531 212.31 77.224 211.323 77.224H211.246L205.87 59.787H203.98V59.36H210.896V59.787H208.929L212.919 73.521H213.08L216.09 64.4L214.69 59.822H212.8V59.36H219.723V59.787H217.756L221.746 73.521H221.9L225.302 63.168Z" fill="#F1F1F1"/>
<path d="M272.02 55.391H240.268V84.091H272.02V55.391Z" fill="#F1F1F1" stroke="#263238" stroke-width="2" stroke-linecap="round" stroke-linejoin="round"/>
<path d="M272.02 67.389C270.955 67.4497 269.897 67.5972 268.856 67.83C264.033 68.88 262.773 75.803 257.32 75.803C252.49 75.803 252.077 69.3 245.154 68.46C243.47 68.1947 241.745 68.5003 240.254 69.328V84.091H272.02V67.389Z" fill="#263238" stroke="#263238" stroke-linecap="round" stroke-linejoin="round"/>
<path d="M250.817 61.9571C250.818 62.6637 250.61 63.3549 250.218 63.9431C249.827 64.5312 249.269 64.9899 248.616 65.2609C247.964 65.532 247.245 65.6033 246.552 65.4658C245.859 65.3283 245.222 64.9881 244.723 64.4884C244.223 63.9887 243.883 63.352 243.745 62.6588C243.608 61.9656 243.679 61.2472 243.95 60.5946C244.221 59.942 244.68 59.3845 245.268 58.9928C245.856 58.601 246.547 58.3927 247.254 58.394C248.199 58.394 249.105 58.7694 249.773 59.4376C250.442 60.1058 250.817 61.0121 250.817 61.9571V61.9571Z" fill="white" stroke="#263238" stroke-linecap="round" stroke-linejoin="round"/>
<path d="M273.469 46.228H202.79V48.951H273.469V46.228Z" fill="white" stroke="#263238" stroke-linecap="round" stroke-linejoin="round"/>
<path d="M269.059 144.081H238.462C237.259 144.081 236.105 144.559 235.255 145.41C234.404 146.26 233.926 147.414 233.926 148.617V164.983C233.926 166.186 234.404 167.34 235.255 168.19C236.105 169.041 237.259 169.519 238.462 169.519H239.4C238.448 171.619 236.6 174.839 233.681 176.75C233.681 176.75 239.89 176.316 246.358 169.519H269.045C270.248 169.519 271.402 169.041 272.252 168.19C273.103 167.34 273.581 166.186 273.581 164.983V148.617C273.581 147.416 273.105 146.265 272.257 145.415C271.41 144.564 270.26 144.085 269.059 144.081V144.081Z" fill="#263238" stroke="#263238" stroke-linecap="round" stroke-linejoin="round"/>
<path d="M248.5 156.219C248.501 155.756 248.365 155.303 248.109 154.917C247.853 154.532 247.487 154.231 247.06 154.053C246.632 153.876 246.162 153.829 245.708 153.919C245.253 154.009 244.836 154.231 244.509 154.559C244.181 154.886 243.959 155.303 243.869 155.758C243.779 156.212 243.825 156.682 244.003 157.11C244.181 157.537 244.482 157.903 244.867 158.159C245.253 158.415 245.706 158.551 246.169 158.55C246.787 158.548 247.378 158.302 247.815 157.865C248.252 157.428 248.498 156.837 248.5 156.219V156.219Z" fill="#F1F1F1" stroke="#263238" stroke-linecap="round" stroke-linejoin="round"/>
<path d="M256.431 156.219C256.431 155.758 256.294 155.307 256.038 154.924C255.782 154.541 255.418 154.242 254.992 154.065C254.566 153.889 254.097 153.843 253.645 153.933C253.193 154.023 252.778 154.245 252.452 154.571C252.126 154.897 251.904 155.312 251.814 155.764C251.724 156.216 251.77 156.685 251.946 157.111C252.123 157.537 252.422 157.901 252.805 158.157C253.188 158.413 253.639 158.55 254.1 158.55C254.718 158.548 255.309 158.302 255.746 157.865C256.183 157.429 256.429 156.837 256.431 156.219V156.219Z" fill="#F1F1F1" stroke="#263238" stroke-linecap="round" stroke-linejoin="round"/>
<path d="M264.369 156.219C264.37 155.756 264.234 155.304 263.978 154.918C263.722 154.533 263.358 154.232 262.931 154.054C262.503 153.876 262.033 153.829 261.579 153.918C261.125 154.008 260.708 154.23 260.38 154.556C260.053 154.883 259.829 155.3 259.738 155.753C259.648 156.207 259.693 156.678 259.87 157.105C260.047 157.533 260.347 157.898 260.731 158.156C261.116 158.413 261.568 158.55 262.031 158.55C262.649 158.548 263.242 158.302 263.68 157.866C264.118 157.429 264.365 156.837 264.369 156.219Z" fill="#F1F1F1" stroke="#263238" stroke-linecap="round" stroke-linejoin="round"/>
<path d="M100.8 53.641H151.2C152.399 53.641 153.55 54.1174 154.398 54.9655C155.246 55.8135 155.722 56.9637 155.722 58.163V93.1H96.299V58.163C96.299 56.9673 96.7726 55.8203 97.6161 54.9729C98.4596 54.1254 99.6044 53.6465 100.8 53.641V53.641Z" fill="#F1F1F1" stroke="#263238" stroke-linecap="round" stroke-linejoin="round"/>
<path d="M155.694 87.465H96.299V93.079H155.694V87.465Z" fill="#263238" stroke="#263238" stroke-linecap="round" stroke-linejoin="round"/>
<path d="M152.978 89.3831H99.0221V91.161H152.978V89.3831Z" fill="white" stroke="#263238" stroke-linecap="round" stroke-linejoin="round"/>
<path d="M126 79.751C130.531 79.751 134.204 76.078 134.204 71.547C134.204 67.0161 130.531 63.343 126 63.343C121.469 63.343 117.796 67.0161 117.796 71.547C117.796 76.078 121.469 79.751 126 79.751Z" fill="#263238" stroke="#263238" stroke-linecap="round" stroke-linejoin="round"/>
<path d="M122.297 66.444L131.152 71.554L122.297 76.664V66.444Z" fill="white" stroke="#263238" stroke-linecap="round" stroke-linejoin="round"/>
<path d="M130.004 107.45H73.633C72.5428 107.45 71.659 108.334 71.659 109.424V130.907C71.659 131.997 72.5428 132.881 73.633 132.881H130.004C131.094 132.881 131.978 131.997 131.978 130.907V109.424C131.978 108.334 131.094 107.45 130.004 107.45Z" fill="#263238" stroke="#263238" stroke-linecap="round" stroke-linejoin="round"/>
<path d="M78.841 110.915L79.135 111.405C77.805 112.147 76.566 113.449 76.566 114.975C76.549 115.237 76.5845 115.5 76.6703 115.748C76.7562 115.997 76.8908 116.225 77.0662 116.421C77.2415 116.616 77.4542 116.775 77.6916 116.887C77.9291 117 78.1866 117.063 78.449 117.075C78.645 117.075 78.778 116.977 78.778 116.781C78.778 116.585 78.68 116.522 78.484 116.487C78.2197 116.415 77.9894 116.252 77.8343 116.027C77.6791 115.801 77.6092 115.527 77.637 115.255C77.6421 115.038 77.6913 114.824 77.7818 114.626C77.8722 114.428 78.0019 114.251 78.163 114.105C78.324 113.959 78.5131 113.847 78.7187 113.777C78.9244 113.706 79.1422 113.678 79.359 113.694C79.5949 113.695 79.8281 113.743 80.0451 113.836C80.262 113.928 80.4582 114.063 80.622 114.233C80.7858 114.403 80.9139 114.603 80.9988 114.823C81.0836 115.043 81.1235 115.278 81.116 115.514C81.1126 115.81 81.0495 116.103 80.9305 116.374C80.8115 116.645 80.6391 116.89 80.4234 117.093C80.2078 117.296 79.9535 117.454 79.6756 117.557C79.3977 117.66 79.1019 117.705 78.806 117.691C78.4381 117.715 78.0693 117.661 77.7235 117.533C77.3776 117.405 77.0625 117.206 76.7986 116.949C76.5346 116.692 76.3276 116.382 76.1911 116.039C76.0546 115.697 75.9915 115.329 76.006 114.961C75.985 113.19 77.35 111.762 78.841 110.915ZM84.854 110.915L85.148 111.405C83.811 112.147 82.579 113.449 82.579 114.975C82.561 115.237 82.5958 115.501 82.6813 115.749C82.7668 115.998 82.9014 116.227 83.0769 116.423C83.2525 116.619 83.4655 116.777 83.7034 116.889C83.9413 117.001 84.1993 117.064 84.462 117.075C84.658 117.075 84.791 116.977 84.791 116.781C84.791 116.585 84.693 116.522 84.497 116.487C84.2327 116.415 84.0024 116.252 83.8473 116.027C83.6921 115.801 83.6222 115.527 83.65 115.255C83.6541 115.037 83.7027 114.823 83.7928 114.625C83.8828 114.426 84.0125 114.249 84.1738 114.103C84.3351 113.956 84.5246 113.845 84.7307 113.774C84.9367 113.704 85.155 113.677 85.372 113.694C85.6079 113.695 85.8411 113.743 86.0581 113.836C86.275 113.928 86.4712 114.063 86.635 114.233C86.7988 114.403 86.9269 114.603 87.0118 114.823C87.0966 115.043 87.1365 115.278 87.129 115.514C87.1246 115.81 87.0609 116.102 86.9415 116.373C86.8222 116.644 86.6498 116.888 86.4343 117.091C86.2189 117.294 85.965 117.452 85.6875 117.555C85.41 117.658 85.1147 117.704 84.819 117.691C84.4514 117.714 84.083 117.659 83.7377 117.531C83.3924 117.403 83.0777 117.204 82.814 116.947C82.5502 116.689 82.3432 116.38 82.2063 116.038C82.0694 115.696 82.0056 115.329 82.019 114.961C81.991 113.19 83.356 111.762 84.854 110.915Z" fill="#F1F1F1"/>
<path d="M90.608 116.095H124.936" stroke="white" stroke-linecap="round" stroke-linejoin="round"/>
<path d="M90.608 119.042H124.936" stroke="white" stroke-linecap="round" stroke-linejoin="round"/>
<path d="M90.608 121.989H124.936" stroke="white" stroke-linecap="round" stroke-linejoin="round"/>
<path d="M90.608 124.943H124.936" stroke="white" stroke-linecap="round" stroke-linejoin="round"/>
<path d="M118.862 172.312C125.948 171.155 130.754 164.474 129.598 157.388C128.441 150.303 121.76 145.497 114.674 146.653C107.589 147.81 102.783 154.491 103.939 161.576C105.096 168.662 111.777 173.468 118.862 172.312Z" fill="#263238" stroke="#263238" stroke-linecap="round" stroke-linejoin="round"/>
<path d="M125.013 166.735C129.011 162.183 128.561 155.253 124.01 151.255C119.458 147.258 112.527 147.707 108.53 152.259C104.532 156.811 104.981 163.742 109.533 167.739C114.085 171.737 121.016 171.287 125.013 166.735Z" fill="white" stroke="#263238" stroke-linecap="round" stroke-linejoin="round"/>
<path d="M116.774 151.55V159.481H122.136" stroke="#263238" stroke-width="2" stroke-linecap="round" stroke-linejoin="round"/>
<path d="M198.1 159.509C198.1 159.509 205.555 175.42 205.555 176.26C205.555 177.1 198.94 180.698 197.68 181.454C196.703 182.011 195.696 182.513 194.663 182.959L195.419 190.33C195.419 190.33 206.808 187.733 211.582 185.136C216.356 182.539 216.188 179.606 215.082 175.252C213.976 170.898 206.619 154.07 206.619 154.07L198.1 159.509Z" fill="white"/>
<g style="mix-blend-mode:multiply" opacity="0.5">
<path d="M211.561 185.136C216.335 182.539 216.167 179.606 215.061 175.252C213.955 170.898 206.598 154.07 206.598 154.07L205.408 154.826L205.03 155.526C205.03 155.526 211.897 172.382 212.31 177.996C212.59 181.769 204.995 186.473 199.976 189.161C203.7 188.174 208.768 186.655 211.561 185.136Z" fill="#F1F1F1"/>
</g>
<path d="M198.1 159.509C198.1 159.509 205.555 175.42 205.555 176.26C205.555 177.1 198.94 180.698 197.68 181.454C196.703 182.011 195.696 182.513 194.663 182.959L195.419 190.33C195.419 190.33 206.808 187.733 211.582 185.136C216.356 182.539 216.188 179.606 215.082 175.252C213.976 170.898 206.619 154.07 206.619 154.07L198.1 159.509Z" stroke="#263238" stroke-linecap="round" stroke-linejoin="round"/>
<path d="M144.312 155.995C144.312 155.995 138.873 175.924 138.712 179.445C138.551 182.966 149.513 189.91 149.912 190.33C150.311 190.75 149.289 178.22 149.289 178.22L153.006 160.02L144.312 155.995Z" fill="white"/>
<g style="mix-blend-mode:multiply" opacity="0.5">
<path d="M146.804 157.626L146.685 157.087L144.312 155.995C144.312 155.995 138.873 175.924 138.712 179.445C138.551 182.966 149.513 189.91 149.912 190.33C150.073 190.498 150.01 188.622 149.877 186.305C146.615 183.54 141.932 179.648 141.386 178.01" fill="#F1F1F1"/>
</g>
<path d="M144.312 155.995C144.312 155.995 138.873 175.924 138.712 179.445C138.551 182.966 149.513 189.91 149.912 190.33C150.311 190.75 149.289 178.22 149.289 178.22L153.006 160.02L144.312 155.995Z" stroke="#263238" stroke-linecap="round" stroke-linejoin="round"/>
<path d="M169.855 135.975C169.855 135.975 167.755 137.487 163.66 137.655C159.565 137.823 159.369 134.855 154.28 134.855C148.113 134.855 140.378 154.364 140.378 154.364C140.378 154.364 144.228 158.137 148.001 159.726C150.088 160.64 152.282 161.287 154.532 161.651L155.12 174.468H196.658L197.155 161.651L210.14 153.23C210.14 153.23 203.77 141.841 200.676 137.571C197.582 133.301 192.381 134.89 190.792 135.975C189.203 137.06 184.492 137.319 182.756 137.067C180.491 136.566 178.253 135.951 176.05 135.226C176.05 135.226 173.376 133 169.855 135.975Z" fill="#F1F1F1" stroke="#263238" stroke-linecap="round" stroke-linejoin="round"/>
<path d="M154.952 140.497L154.784 161.77" stroke="#263238" stroke-width="0.5" stroke-linecap="round" stroke-linejoin="round"/>
<path d="M156.457 142.429C156.457 142.429 157.045 152.81 159.257 158.592" stroke="#263238" stroke-width="0.5" stroke-linecap="round" stroke-linejoin="round"/>
<path d="M159.642 159.425C160.12 160.836 160.707 162.208 161.399 163.527" stroke="#263238" stroke-width="0.5" stroke-linecap="round" stroke-linejoin="round"/>
<path d="M157.794 141.253C158.589 145.028 159.711 148.726 161.147 152.306" stroke="#263238" stroke-width="0.5" stroke-linecap="round" stroke-linejoin="round"/>
<path d="M193.9 143.094C193.9 143.094 191.891 151.305 190.127 154.994" stroke="#263238" stroke-width="0.5" stroke-linecap="round" stroke-linejoin="round"/>
<path d="M197.155 161.686L197.071 145.103" stroke="#263238" stroke-width="0.5" stroke-linecap="round" stroke-linejoin="round"/>
<path d="M196.238 145.439C196.238 145.439 194.726 155.939 191.044 161.434" stroke="#263238" stroke-width="0.5" stroke-linecap="round" stroke-linejoin="round"/>
<path d="M194.397 159.341C194.397 159.341 192.717 162.526 191.548 164.199" stroke="#263238" stroke-width="0.5" stroke-linecap="round" stroke-linejoin="round"/>
<path d="M167.51 137.235C167.51 137.235 168.686 144.438 170.359 148.12C172.032 151.802 174.965 152.558 177.478 151.473C179.991 150.388 181.832 145.019 181.678 138.173" stroke="#263238" stroke-width="0.5" stroke-linecap="round" stroke-linejoin="round"/>
<path d="M161.567 122.157C161.567 122.157 159.971 119.399 158.718 120.82C157.465 122.241 159.726 125.51 160.979 126.595C162.232 127.68 163.156 127.015 163.079 125.846C163.002 124.677 161.567 122.157 161.567 122.157Z" fill="#F1F1F1" stroke="#263238" stroke-linecap="round" stroke-linejoin="round"/>
<path opacity="0.5" d="M161.567 122.157C161.567 122.157 159.971 119.399 158.718 120.82C157.465 122.241 159.726 125.51 160.979 126.595C162.232 127.68 163.156 127.015 163.079 125.846C163.002 124.677 161.567 122.157 161.567 122.157Z" fill="white"/>
<path d="M161.567 122.157C161.567 122.157 159.971 119.399 158.718 120.82C157.465 122.241 159.726 125.51 160.979 126.595C162.232 127.68 163.156 127.015 163.079 125.846C163.002 124.677 161.567 122.157 161.567 122.157Z" stroke="#263238" stroke-linecap="round" stroke-linejoin="round"/>
<path d="M186.9 122.157C186.9 122.157 188.489 119.399 189.749 120.82C191.009 122.241 188.741 125.51 187.488 126.595C186.235 127.68 185.304 127.015 185.388 125.846C185.472 124.677 186.9 122.157 186.9 122.157Z" fill="#F1F1F1" stroke="#263238" stroke-linecap="round" stroke-linejoin="round"/>
<path opacity="0.5" d="M186.9 122.157C186.9 122.157 188.489 119.399 189.749 120.82C191.009 122.241 188.741 125.51 187.488 126.595C186.235 127.68 185.304 127.015 185.388 125.846C185.472 124.677 186.9 122.157 186.9 122.157Z" fill="white"/>
<path d="M186.9 122.157C186.9 122.157 188.489 119.399 189.749 120.82C191.009 122.241 188.741 125.51 187.488 126.595C186.235 127.68 185.304 127.015 185.388 125.846C185.472 124.677 186.9 122.157 186.9 122.157Z" stroke="#263238" stroke-linecap="round" stroke-linejoin="round"/>
<path d="M169.099 135.394C169.89 138.968 170.897 142.491 172.116 145.943C173.628 149.709 176.47 149.709 177.646 147.28C178.822 144.851 179.571 135.8 179.571 135.8C179.571 135.8 171.696 136.899 169.099 135.394Z" fill="white" stroke="#263238" stroke-linecap="round" stroke-linejoin="round"/>
<path d="M161.735 123.081C161.735 123.081 163.912 130.781 168.035 135.31C172.158 139.839 173.635 140.91 175.826 140.581C178.017 140.252 180.348 137.403 183.61 131.481C186.872 125.559 187.11 121.016 187.383 120.596C187.656 120.176 186.683 111.804 182.021 108.199C177.359 104.594 172.137 103.012 167.615 106.946C163.093 110.88 160.223 117.299 161.735 123.081Z" fill="white"/>
<g style="mix-blend-mode:multiply" opacity="0.5">
<path d="M182 108.171C177.31 104.573 172.116 102.984 167.594 106.918C163.072 110.852 160.223 117.299 161.735 123.081C161.735 123.081 162.148 124.565 162.967 126.581C162.965 126.323 163 126.066 163.072 125.818C164.073 122.647 167.027 116.508 176.967 119.322C184.863 121.548 183.897 128.492 183.162 132.195L183.589 131.425C186.858 125.482 187.089 120.96 187.362 120.54C187.635 120.12 186.69 111.776 182 108.171Z" fill="#F1F1F1"/>
</g>
<path d="M161.735 123.081C161.735 123.081 163.912 130.781 168.035 135.31C172.158 139.839 173.635 140.91 175.826 140.581C178.017 140.252 180.348 137.403 183.61 131.481C186.872 125.559 187.11 121.016 187.383 120.596C187.656 120.176 186.683 111.804 182.021 108.199C177.359 104.594 172.137 103.012 167.615 106.946C163.093 110.88 160.223 117.299 161.735 123.081Z" stroke="#263238" stroke-linecap="round" stroke-linejoin="round"/>
<path d="M175.805 127.099C175.545 128.734 175.405 130.386 175.385 132.041C175.469 133.714 175.973 134.218 175.217 134.386C174.461 134.554 173.628 133.378 173.628 133.378" stroke="#263238" stroke-linecap="round" stroke-linejoin="round"/>
<path d="M167.426 128.443C167.911 128.793 168.491 128.989 169.089 129.004C169.688 129.019 170.277 128.853 170.779 128.527" stroke="#263238" stroke-linecap="round" stroke-linejoin="round"/>
<path d="M178.066 128.443C178.55 128.793 179.129 128.988 179.726 129.003C180.323 129.018 180.911 128.852 181.412 128.527" stroke="#263238" stroke-linecap="round" stroke-linejoin="round"/>
<path d="M172.774 125.622C172.774 125.622 171.178 121.681 165.907 123.522" stroke="#263238" stroke-linecap="round" stroke-linejoin="round"/>
<path d="M177.163 125.139C177.163 125.139 178.5 121.282 183.274 123.543" stroke="#263238" stroke-linecap="round" stroke-linejoin="round"/>
<path d="M173.789 128.73C173.789 130.886 171.318 132.629 168.266 132.629C165.214 132.629 162.736 130.886 162.736 128.73C162.736 126.574 165.046 125.678 168.098 125.678C171.15 125.678 173.789 126.581 173.789 128.73Z" stroke="#263238" stroke-linecap="round" stroke-linejoin="round"/>
<path d="M186.522 128.73C186.522 130.886 184.044 132.629 180.992 132.629C177.94 132.629 175.469 130.886 175.469 128.73C175.469 126.574 177.772 125.678 180.824 125.678C183.876 125.678 186.522 126.581 186.522 128.73Z" stroke="#263238" stroke-linecap="round" stroke-linejoin="round"/>
<path d="M115.941 195.881L115.598 280.742C115.598 281.009 115.704 281.266 115.893 281.455C116.082 281.644 116.339 281.75 116.606 281.75V281.75C116.867 281.75 117.117 281.648 117.304 281.467C117.491 281.285 117.6 281.038 117.607 280.777L120.029 196L115.941 195.881Z" fill="white" stroke="#263238" stroke-linecap="round" stroke-linejoin="round"/>
<path d="M110.229 215.719L109.9 303.45C109.899 303.583 109.924 303.714 109.975 303.837C110.025 303.96 110.099 304.071 110.193 304.165C110.287 304.259 110.398 304.333 110.521 304.383C110.644 304.434 110.775 304.459 110.908 304.458V304.458C111.168 304.458 111.418 304.358 111.606 304.178C111.794 303.998 111.905 303.752 111.916 303.492L114.331 215.831L110.229 215.719Z" fill="white" stroke="#263238" stroke-linecap="round" stroke-linejoin="round"/>
<path d="M233.261 195.881L233.604 280.742C233.605 280.874 233.58 281.005 233.53 281.127C233.48 281.249 233.406 281.361 233.313 281.454C233.22 281.548 233.11 281.622 232.988 281.673C232.866 281.724 232.735 281.75 232.603 281.75V281.75C232.342 281.75 232.09 281.649 231.902 281.467C231.714 281.286 231.604 281.038 231.595 280.777L229.18 196L233.261 195.881Z" fill="white" stroke="#263238" stroke-linecap="round" stroke-linejoin="round"/>
<path d="M238.98 215.719L239.323 303.45C239.324 303.583 239.298 303.714 239.248 303.837C239.198 303.96 239.124 304.071 239.03 304.165C238.936 304.259 238.824 304.333 238.702 304.383C238.579 304.434 238.448 304.459 238.315 304.458V304.458C238.055 304.458 237.806 304.358 237.619 304.177C237.432 303.997 237.323 303.751 237.314 303.492L234.892 215.831L238.98 215.719Z" fill="white" stroke="#263238" stroke-linecap="round" stroke-linejoin="round"/>
<path d="M150.003 219.366L149.8 297.234C149.778 297.428 149.832 297.624 149.951 297.779C150.069 297.934 150.244 298.037 150.437 298.067V298.067C150.626 298.041 150.797 297.944 150.917 297.795C151.037 297.647 151.095 297.459 151.081 297.269L152.6 219.457L150.003 219.366Z" fill="white" stroke="#263238" stroke-linecap="round" stroke-linejoin="round"/>
<path d="M199.29 216.86L199.479 284.816C199.495 284.98 199.448 285.145 199.346 285.275C199.244 285.405 199.096 285.492 198.933 285.516C198.77 285.492 198.623 285.405 198.522 285.275C198.422 285.144 198.376 284.98 198.394 284.816L197.099 216.916L199.29 216.86Z" fill="white" stroke="#263238" stroke-linecap="round" stroke-linejoin="round"/>
<path d="M149.24 216.86L149.429 284.816C149.445 284.98 149.398 285.145 149.296 285.275C149.194 285.405 149.046 285.492 148.883 285.516C148.72 285.492 148.573 285.405 148.472 285.275C148.372 285.144 148.326 284.98 148.344 284.816L147.049 216.916L149.24 216.86Z" fill="white" stroke="#263238" stroke-linecap="round" stroke-linejoin="round"/>
<path d="M197.883 219.366L198.1 297.234C198.122 297.428 198.068 297.624 197.949 297.779C197.831 297.934 197.656 298.037 197.463 298.067C197.275 298.039 197.104 297.942 196.985 297.794C196.866 297.646 196.806 297.459 196.819 297.269L195.3 219.457L197.883 219.366Z" fill="white" stroke="#263238" stroke-linecap="round" stroke-linejoin="round"/>
<path d="M173.6 224.819C190.804 224.819 204.75 221.632 204.75 217.7C204.75 213.768 190.804 210.581 173.6 210.581C156.396 210.581 142.45 213.768 142.45 217.7C142.45 221.632 156.396 224.819 173.6 224.819Z" fill="white" stroke="#263238" stroke-linecap="round" stroke-linejoin="round"/>
<path d="M158.431 278.131C158.431 278.131 156.8 280.469 157.969 281.631C159.138 282.793 160.3 282.331 160.181 283.5C160.062 284.669 158.2 288.631 156.569 292.831C154.938 297.031 158.319 301.231 161.469 300.069C164.619 298.907 164.269 287.231 164.731 285.131C165.193 283.031 165.55 282.681 165.431 280.7C165.312 278.719 165.2 276.619 163.681 276.381C162.162 276.143 159.131 277.319 158.431 278.131Z" fill="white" stroke="#263238" stroke-linecap="round" stroke-linejoin="round"/>
<path d="M163.436 296.849C161.336 296.051 158.116 296.212 156.303 296.394C156.912 299.033 159.243 300.888 161.469 300.069C162.4 299.726 163.009 298.48 163.436 296.849Z" fill="#F1F1F1" stroke="#263238" stroke-linecap="round" stroke-linejoin="round"/>
<path d="M154.819 273C154.819 273 158.2 278.719 159.131 280.231C160.062 281.743 163.219 281.281 163.569 279.181C163.919 277.081 162.281 271.25 162.281 271.25L155.281 273H154.819Z" fill="white" stroke="#263238" stroke-linecap="round" stroke-linejoin="round"/>
<path d="M146.769 263.9C146.769 263.9 145.831 265.419 146.3 266.469C146.769 267.519 148.05 270.55 148.869 272.069C149.688 273.588 153.419 274.519 157.731 273.819C162.043 273.119 164.5 271.131 164.619 269.381C164.738 267.631 163.919 265.3 163.331 262.5C162.743 259.7 161.231 259.819 159.131 259.819C157.031 259.819 148.519 262.269 146.769 263.9Z" fill="#F1F1F1" stroke="#263238" stroke-linecap="round" stroke-linejoin="round"/>
<path d="M159.369 229.6C159.432 226.73 161.091 225.316 161.217 223.349C161.414 220.749 161.199 218.133 160.58 215.6L157.388 211.239C148.204 211.358 141.624 211.512 141.519 211.547C141.169 211.659 140.931 213.647 140.7 215.278C140.7 215.278 136.801 215.775 137.501 226.625C137.599 228.137 141.533 245.63 141.82 247.625C143.57 259.812 147.469 265.916 147.469 265.916C147.469 265.916 147.819 267.435 152.369 267.085C156.919 266.735 161.469 263.704 161.469 263.704C161.469 263.704 159.131 239.981 159.369 229.6Z" fill="#263238" stroke="#263238" stroke-linecap="round" stroke-linejoin="round"/>
<path d="M140.07 213.5C140.07 213.5 135.247 214.2 132.293 217.574C129.339 220.948 131.845 223.174 137.585 222.572C143.325 221.97 149.947 216.097 150.227 215.782C150.507 215.467 144.242 211.477 140.07 213.5Z" fill="white" stroke="#263238" stroke-linecap="round" stroke-linejoin="round"/>
<path d="M148.631 215.6C151.704 215.758 154.753 216.227 157.731 217C161.7 218.169 168.7 220.5 170.331 220.5C171.962 220.5 171.5 214.431 171.5 213.269C171.5 212.107 150.5 211.4 147.931 211.4C145.362 211.4 148.631 215.6 148.631 215.6Z" fill="white" stroke="#263238" stroke-linecap="round" stroke-linejoin="round"/>
<path d="M171.5 213.269C171.5 213.269 169.631 214.2 168.931 217.7C168.231 221.2 167.3 223.069 168.7 224C170.1 224.931 176.169 225.631 177.1 224.7C178.031 223.769 180.6 219.1 181.069 216.069C181.538 213.038 171.5 213.269 171.5 213.269Z" fill="#F1F1F1" stroke="#263238" stroke-linecap="round" stroke-linejoin="round"/>
<path d="M179.431 214.431C178.346 215.676 177.48 217.096 176.869 218.631C176.374 220.238 175.984 221.874 175.7 223.531C177.933 224.143 180.117 224.925 182.231 225.869C185.969 227.5 192.269 228.669 198.331 230.069C204.393 231.469 206.031 232.869 208.131 232.869C210.231 232.869 212.8 231.231 216.069 227.269C219.338 223.307 216.531 214.9 213.269 212.331C210.007 209.762 192.5 207.669 190.169 208.369C187.838 209.069 179.431 214.431 179.431 214.431Z" fill="#263238" stroke="#263238" stroke-linecap="round" stroke-linejoin="round"/>
<path d="M135.653 222.635C135.192 220.541 134.258 218.58 132.923 216.902C132.706 217.105 132.496 217.315 132.293 217.546C129.696 220.5 131.32 222.6 135.653 222.635Z" fill="#F1F1F1" stroke="#263238" stroke-linecap="round" stroke-linejoin="round"/>
<path d="M159.012 224.483C159.012 224.483 156.604 250.25 151.69 254.261" stroke="white" stroke-width="0.5" stroke-linecap="round" stroke-linejoin="round"/>
<path d="M157.311 248.941C157.311 248.941 155.4 257.341 150.388 260.68" stroke="white" stroke-width="0.5" stroke-linecap="round" stroke-linejoin="round"/>
<path d="M188.3 219.8C188.3 219.8 180.831 220.269 185.731 223.531C190.631 226.793 199.5 228.9 199.5 228.9" stroke="white" stroke-width="0.5" stroke-linecap="round" stroke-linejoin="round"/>
<path d="M242.522 210.973L240.002 208.705L234.178 196.105C233.902 195.532 233.468 195.049 232.928 194.713C232.387 194.377 231.762 194.202 231.126 194.208H118.006C117.368 194.201 116.742 194.375 116.2 194.711C115.659 195.047 115.224 195.531 114.947 196.105L107.688 211.799L106.491 211.358V214.949L106.547 214.907C106.618 215.386 106.861 215.823 107.231 216.136C107.601 216.449 108.072 216.617 108.556 216.608H240.569C241.079 216.62 241.574 216.433 241.948 216.087C242.323 215.741 242.549 215.262 242.578 214.753L242.522 210.973Z" fill="#263238" stroke="#263238" stroke-linecap="round" stroke-linejoin="round"/>
<path d="M240.569 213.325H108.556C108.229 213.338 107.904 213.268 107.612 213.121C107.319 212.974 107.069 212.755 106.884 212.485C106.7 212.215 106.587 211.903 106.556 211.577C106.525 211.251 106.577 210.923 106.708 210.623L114.947 192.822C115.222 192.247 115.657 191.762 116.199 191.426C116.741 191.09 117.368 190.916 118.006 190.925H231.126C231.763 190.917 232.388 191.092 232.929 191.428C233.47 191.764 233.903 192.248 234.178 192.822L242.417 210.623C242.548 210.923 242.6 211.251 242.569 211.577C242.538 211.903 242.425 212.215 242.24 212.485C242.056 212.755 241.805 212.974 241.513 213.121C241.221 213.268 240.896 213.338 240.569 213.325V213.325Z" fill="white" stroke="#263238" stroke-linecap="round" stroke-linejoin="round"/>
<g style="mix-blend-mode:multiply" opacity="0.5">
<path d="M115.241 201.369C115.241 201.369 112.252 203.42 114.121 204.169C115.99 204.918 137.473 204.358 140.091 203.609C142.709 202.86 145.691 195.951 145.691 194.831C145.691 193.711 141.925 192.906 140.539 192.843C139.153 192.78 120.841 193.893 120.841 193.893L115.241 201.369Z" fill="#F1F1F1"/>
</g>
<g style="mix-blend-mode:multiply" opacity="0.5">
<path d="M222.103 204.918C226.332 204.918 229.761 203.495 229.761 201.74C229.761 199.985 226.332 198.562 222.103 198.562C217.874 198.562 214.445 199.985 214.445 201.74C214.445 203.495 217.874 204.918 222.103 204.918Z" fill="#F1F1F1"/>
</g>
<g style="mix-blend-mode:multiply" opacity="0.5">
<path d="M173.348 208.845C188.514 208.845 200.809 206.545 200.809 203.707C200.809 200.869 188.514 198.569 173.348 198.569C158.182 198.569 145.887 200.869 145.887 203.707C145.887 206.545 158.182 208.845 173.348 208.845Z" fill="#F1F1F1"/>
</g>
<path d="M216.503 189.238C216.503 189.238 215.999 187.229 214.326 187.901C212.653 188.573 212.821 193.011 213.15 195.524C213.479 198.037 215.747 196.861 215.747 196.861V195.356C215.747 195.356 214.914 196.021 214.494 195.104C214.074 194.187 214.158 189.574 214.578 189.658C214.998 189.742 215.831 191.163 215.831 191.163C215.831 191.163 216.083 191.002 216.503 189.238Z" fill="#F1F1F1" stroke="#263238" stroke-linecap="round" stroke-linejoin="round"/>
<path d="M215.299 189.574V200.578C215.299 201.873 218.274 202.923 221.949 202.923C225.624 202.923 228.592 201.873 228.592 200.578V189.574H215.299Z" fill="#F1F1F1" stroke="#263238" stroke-linecap="round" stroke-linejoin="round"/>
<path d="M228.592 189.574C228.592 190.694 225.617 191.597 221.949 191.597C218.281 191.597 215.299 190.694 215.299 189.574C215.299 188.454 218.274 187.551 221.949 187.551C225.624 187.551 228.592 188.461 228.592 189.574Z" fill="white" stroke="#263238" stroke-linecap="round" stroke-linejoin="round"/>
<path d="M227.724 189.574C227.724 190.547 225.134 191.331 221.949 191.331C218.764 191.331 216.167 190.547 216.167 189.574C216.167 188.601 218.757 187.817 221.949 187.817C225.141 187.817 227.724 188.601 227.724 189.574Z" fill="white" stroke="#263238" stroke-linecap="round" stroke-linejoin="round"/>
<path d="M217.49 190.694C220.4 191.543 223.491 191.543 226.401 190.694C223.491 189.845 220.4 189.845 217.49 190.694V190.694Z" fill="#263238" stroke="#263238" stroke-linecap="round" stroke-linejoin="round"/>
<path d="M114.415 194.6L114.499 198.366L139.874 198.618V194.264L114.415 194.6Z" fill="white" stroke="#263238" stroke-linecap="round" stroke-linejoin="round"/>
<path d="M139.874 198.618L143.563 190.666V188.321L139.706 195.02L139.874 198.618Z" fill="white" stroke="#263238" stroke-linecap="round" stroke-linejoin="round"/>
<path d="M114.415 198.03L114.499 201.803L139.874 202.055V197.701L114.415 198.03Z" fill="white" stroke="#263238" stroke-linecap="round" stroke-linejoin="round"/>
<path d="M139.874 202.055L143.563 194.096V191.751L139.706 198.45L139.874 202.055Z" fill="white" stroke="#263238" stroke-linecap="round" stroke-linejoin="round"/>
<path d="M124.215 185.052C124.215 185.052 124.803 183.883 123.963 183.379C123.123 182.875 122.206 184.079 121.702 184.464C121.198 184.849 110.649 191.835 110.313 192.927C109.977 194.019 110.313 196.427 112.574 196.693C114.835 196.959 116.844 195.44 117.852 195.188C118.86 194.936 119.252 194.852 119.252 194.852L126.203 185.472L124.215 185.052Z" fill="white" stroke="#263238" stroke-linecap="round" stroke-linejoin="round"/>
<path d="M112.574 196.7C114.835 196.952 116.844 195.447 117.852 195.195C118.86 194.943 119.252 194.859 119.252 194.859L119.504 194.516L112.973 193.186C112.618 192.852 112.161 192.645 111.676 192.599C111.19 192.554 110.703 192.672 110.292 192.934C109.977 194.012 110.313 196.441 112.574 196.7Z" fill="white" stroke="#263238" stroke-linecap="round" stroke-linejoin="round"/>
<path d="M112.994 193.2H132.594C138.712 193.2 140.553 192.864 140.553 192.864L144.319 185.073C144.319 185.073 132.419 185.829 128.744 185.577C127.225 185.533 125.713 185.365 124.222 185.073L112.994 193.2Z" fill="white" stroke="#263238" stroke-linecap="round" stroke-linejoin="round"/>
<path d="M112.994 193.2L113.33 194.705C113.33 194.705 129.241 194.789 133.427 194.789C137.613 194.789 140.798 194.957 140.798 194.957L140.546 192.857L112.994 193.2Z" fill="white" stroke="#263238" stroke-linecap="round" stroke-linejoin="round"/>
<path d="M140.798 194.936L144.312 186.893V185.052L140.546 192.843L140.798 194.936Z" fill="white" stroke="#263238" stroke-linecap="round" stroke-linejoin="round"/>
<path d="M197.33 204.344H149.345C149.239 204.345 149.133 204.325 149.035 204.285C148.936 204.245 148.847 204.186 148.771 204.111C148.696 204.036 148.636 203.947 148.595 203.849C148.554 203.751 148.533 203.645 148.533 203.539C148.533 203.433 148.554 203.327 148.595 203.229C148.636 203.131 148.696 203.042 148.771 202.967C148.847 202.892 148.936 202.833 149.035 202.793C149.133 202.753 149.239 202.733 149.345 202.734H197.33C197.436 202.733 197.541 202.753 197.639 202.793C197.737 202.834 197.826 202.893 197.901 202.968C197.976 203.043 198.035 203.132 198.076 203.23C198.116 203.328 198.136 203.433 198.135 203.539C198.136 203.645 198.116 203.75 198.076 203.848C198.035 203.946 197.976 204.035 197.901 204.11C197.826 204.185 197.737 204.245 197.639 204.285C197.541 204.325 197.436 204.345 197.33 204.344V204.344Z" fill="white" stroke="#263238" stroke-linecap="round" stroke-linejoin="round"/>
<path d="M197.736 202.72H148.932C148.753 202.72 148.581 202.652 148.451 202.53C148.321 202.408 148.243 202.24 148.232 202.062L145.579 170.177C145.567 170.078 145.576 169.978 145.606 169.883C145.636 169.788 145.686 169.701 145.752 169.627C145.818 169.553 145.899 169.493 145.99 169.453C146.081 169.413 146.18 169.392 146.279 169.393H200.396C200.495 169.392 200.594 169.413 200.685 169.453C200.776 169.493 200.857 169.553 200.923 169.627C200.989 169.701 201.039 169.788 201.069 169.883C201.099 169.978 201.108 170.078 201.096 170.177L198.443 202.062C198.432 202.241 198.353 202.41 198.221 202.532C198.09 202.655 197.916 202.722 197.736 202.72V202.72Z" fill="white" stroke="#263238" stroke-linecap="round" stroke-linejoin="round"/>
<path d="M177.94 186.606C177.94 188.51 175.875 190.05 173.334 190.05C170.793 190.05 168.721 188.51 168.721 186.606C168.721 184.702 170.786 183.169 173.334 183.169C175.882 183.169 177.94 184.709 177.94 186.606Z" fill="white" stroke="#263238" stroke-linecap="round" stroke-linejoin="round"/>
<path d="M225.631 161.7C226.38 161.116 226.906 160.293 227.122 159.369C227.279 158.676 227.262 157.954 227.073 157.269" stroke="#263238" stroke-linecap="round" stroke-linejoin="round"/>
<path d="M220.045 186.662C220.045 186.662 224.7 183.862 223.181 180.663C221.662 177.464 216.524 175.343 216.524 170.359C216.524 166.061 221.095 164.472 224.077 162.75" stroke="#263238" stroke-linecap="round" stroke-linejoin="round"/>
<path d="M224.343 186.571C224.343 186.571 226.94 184.842 226.94 182.098C226.94 180.257 224.973 179.053 222.376 176.092" stroke="#263238" stroke-linecap="round" stroke-linejoin="round"/>
<path d="M220.941 174.3C220.941 174.3 219.24 172.963 220.493 170.45" stroke="#263238" stroke-linecap="round" stroke-linejoin="round"/>
<path d="M181.531 100.975C182.364 100.8 184.149 100.114 185.353 97.321C185.372 97.2787 185.381 97.2332 185.382 97.1871C185.383 97.1409 185.375 97.0951 185.358 97.0521C185.341 97.0092 185.316 96.97 185.284 96.9369C185.252 96.9037 185.213 96.8773 185.171 96.859C185.085 96.8234 184.989 96.8226 184.903 96.8565C184.817 96.8905 184.747 96.9566 184.709 97.041C183.603 99.603 182.021 100.17 181.363 100.296C182.54 98.871 183.191 97.0835 183.204 95.235C183.204 90.377 178.703 86.443 173.152 86.443C167.601 86.443 163.1 90.377 163.1 95.235C163.104 97.009 163.694 98.7319 164.78 100.135C163.723 100.079 161.938 100.527 159.677 103.166C159.612 103.233 159.576 103.322 159.576 103.414C159.576 103.507 159.612 103.596 159.677 103.663C159.742 103.717 159.824 103.747 159.908 103.747C159.959 103.747 160.009 103.736 160.055 103.714C160.101 103.692 160.142 103.66 160.174 103.621C163.065 100.254 164.976 100.821 165.361 100.975C164.707 101.335 164.095 101.764 163.534 102.256C160.307 105.161 158.34 110.656 158.592 115.234C158.875 118.27 159.976 121.173 161.777 123.634C164.121 121.957 166.064 119.781 167.468 117.264C168.514 115.415 169.449 113.505 170.268 111.545C170.268 113.596 170.534 116.074 171.612 117.845C172.39 119.244 173.529 120.408 174.911 121.216C176.292 122.024 177.866 122.445 179.466 122.437C180.019 122.445 180.57 122.391 181.111 122.276C181.158 122.264 181.203 122.242 181.242 122.212C181.28 122.182 181.312 122.144 181.335 122.101C184.037 122.675 186.725 122.626 187.138 122.052C187.803 121.135 188.748 118.272 189.063 114.772C189.637 108.836 185.899 103.684 181.531 100.975ZM172.263 117.418C170.905 115.199 170.947 111.58 171.108 109.501L171.199 109.263C171.264 111.401 171.809 113.498 172.794 115.396C173.779 117.295 175.179 118.948 176.89 120.232C177.835 120.885 178.883 121.375 179.991 121.681C178.276 121.8 174.748 121.471 172.263 117.418V117.418Z" fill="#263238"/>
<path d="M172.382 106.4C172.382 106.4 171.808 110.642 177.198 114.8C182.588 118.958 187.698 117.32 187.698 117.32" stroke="white" stroke-width="0.5" stroke-linecap="round" stroke-linejoin="round"/>
<path d="M173.173 105C173.173 105 178.85 113.267 186.69 111.111" stroke="white" stroke-width="0.5" stroke-linecap="round" stroke-linejoin="round"/>
<path d="M170.366 102.249C169.471 101.794 168.468 101.594 167.467 101.671C166.466 101.748 165.505 102.098 164.689 102.683C161.672 104.692 160.16 109.438 160.16 109.438" stroke="white" stroke-width="0.5" stroke-linecap="round" stroke-linejoin="round"/>
<path d="M170.513 104.552C170.513 104.552 168.07 103.901 166.558 105.413C165.821 106.081 165.191 106.857 164.689 107.716" stroke="white" stroke-width="0.5" stroke-linecap="round" stroke-linejoin="round"/>
</svg>
