<svg width="350" height="350" viewBox="0 0 350 350" fill="none" xmlns="http://www.w3.org/2000/svg">
<path opacity="0.7" d="M47.551 116.963C47.551 116.963 28.035 167.363 55.461 218.113C82.887 268.863 139.377 295.673 184.59 318.598C229.803 341.523 276.752 330.358 299.061 292.81C321.37 255.262 290.773 228.459 290.731 174.916C290.689 121.373 298.746 107.198 269.731 61.964C240.716 16.73 169.589 6.71303 115.801 40.264C62.013 73.815 47.551 116.963 47.551 116.963Z" fill="white"/>
<path d="M48.3 302.162H196.133C196.728 301.21 197.33 300.258 197.946 299.327C213.85 275.121 239.316 257.859 267.127 249.76C279.587 246.134 293.083 243.978 303.093 235.718C313.397 227.227 318.129 213.675 320.173 200.48C322.658 184.506 321.314 166.593 310.471 154.602C297.738 140.525 276.402 138.943 259.812 129.717C231.259 113.827 220.192 77.644 194.215 57.82C177.8 45.297 155.652 40.446 135.8 43.19C107.667 47.089 81.2 65.94 73.255 93.59C70.971 101.643 70.1553 110.042 70.847 118.384C72.114 134.869 75.663 151.564 72.317 167.755C68.628 185.598 57.022 200.655 50.085 217.518C41.447 238.518 40.285 262.038 43.946 284.424C44.9259 290.443 46.3818 296.374 48.3 302.162V302.162Z" fill="#F1F1F1"/>
<path opacity="0.7" d="M48.3 302.162H196.133C196.728 301.21 197.33 300.258 197.946 299.327C213.85 275.121 239.316 257.859 267.127 249.76C279.587 246.134 293.083 243.978 303.093 235.718C313.397 227.227 318.129 213.675 320.173 200.48C322.658 184.506 321.314 166.593 310.471 154.602C297.738 140.525 276.402 138.943 259.812 129.717C231.259 113.827 220.192 77.644 194.215 57.82C177.8 45.297 155.652 40.446 135.8 43.19C107.667 47.089 81.2 65.94 73.255 93.59C70.971 101.643 70.1553 110.042 70.847 118.384C72.114 134.869 75.663 151.564 72.317 167.755C68.628 185.598 57.022 200.655 50.085 217.518C41.447 238.518 40.285 262.038 43.946 284.424C44.9259 290.443 46.3818 296.374 48.3 302.162V302.162Z" fill="white"/>
<path d="M29.393 302.162H322.217" stroke="#263238" stroke-linecap="round" stroke-linejoin="round"/>
<path d="M195.3 79.373V68.383L187.068 67.683C186.587 65.9643 185.905 64.3079 185.038 62.748L190.351 56.448L182.581 48.678L176.281 53.991C174.734 53.1203 173.089 52.4365 171.381 51.954L170.681 43.722H159.6L158.9 51.954C157.192 52.4365 155.547 53.1203 154 53.991L147.7 48.678L139.93 56.448L145.243 62.748C144.376 64.3079 143.694 65.9643 143.213 67.683L134.981 68.383V79.373L143.213 80.073C143.697 81.7798 144.378 83.4242 145.243 84.973L139.93 91.273L147.7 99.043L154 93.73C155.547 94.6008 157.192 95.2846 158.9 95.767L159.6 103.999H170.59L171.29 95.767C173.01 95.2853 174.666 94.6015 176.225 93.73L182.525 99.043L190.295 91.273L184.982 84.973C185.847 83.4242 186.528 81.7798 187.012 80.073L195.3 79.373ZM165.13 86.646C162.605 86.646 160.136 85.8972 158.037 84.4942C155.937 83.0913 154.3 81.0972 153.334 78.7641C152.368 76.4311 152.115 73.8639 152.607 71.3871C153.1 68.9104 154.316 66.6353 156.102 64.8497C157.887 63.0641 160.162 61.848 162.639 61.3554C165.116 60.8627 167.683 61.1156 170.016 62.0819C172.349 63.0483 174.343 64.6848 175.746 66.7845C177.149 68.8842 177.898 71.3528 177.898 73.878C177.897 75.5569 177.565 77.219 176.922 78.7695C176.278 80.32 175.335 81.7284 174.146 82.9142C172.958 84.1 171.548 85.04 169.996 85.6803C168.444 86.3206 166.781 86.6488 165.102 86.646H165.13Z" stroke="#263238" stroke-linecap="round" stroke-linejoin="round"/>
<path d="M313.383 186.788V181.524L309.435 181.181C309.203 180.358 308.876 179.564 308.462 178.815L311.01 175.784L307.3 172.06L304.276 174.608C303.529 174.191 302.734 173.864 301.91 173.635L301.567 169.687H296.296L295.96 173.635C295.135 173.863 294.341 174.19 293.594 174.608L290.563 172.06L286.839 175.784L289.387 178.815C288.968 179.562 288.639 180.356 288.407 181.181L284.459 181.524V186.788L288.407 187.131C288.639 187.956 288.968 188.75 289.387 189.497L286.818 192.5L290.542 196.224L293.573 193.676C294.32 194.094 295.114 194.421 295.939 194.649L296.275 198.597H301.546L301.889 194.649C302.713 194.42 303.508 194.093 304.255 193.676L307.279 196.224L311.01 192.5L308.462 189.469C308.876 188.72 309.203 187.926 309.435 187.103L313.383 186.788ZM298.914 190.288C297.702 190.289 296.517 189.931 295.509 189.259C294.501 188.587 293.715 187.631 293.25 186.512C292.786 185.393 292.663 184.161 292.899 182.972C293.134 181.784 293.717 180.692 294.573 179.834C295.43 178.977 296.521 178.393 297.709 178.156C298.898 177.919 300.13 178.04 301.249 178.504C302.369 178.967 303.326 179.752 303.999 180.759C304.673 181.767 305.032 182.951 305.032 184.163C305.031 184.967 304.872 185.764 304.563 186.506C304.254 187.249 303.802 187.924 303.233 188.492C302.664 189.06 301.988 189.511 301.244 189.817C300.501 190.124 299.704 190.282 298.9 190.281L298.914 190.288Z" stroke="#263238" stroke-linecap="round" stroke-linejoin="round"/>
<path d="M309.4 90.8601C309.959 88.4408 309.882 85.918 309.175 83.5376C308.469 81.1572 307.158 79.0004 305.37 77.2774C303.582 75.5544 301.379 74.324 298.974 73.7062C296.569 73.0884 294.045 73.1042 291.648 73.752C290.188 71.1626 287.93 69.1143 285.211 67.9126C282.491 66.711 279.457 66.4202 276.559 67.0837C273.661 67.7471 271.055 69.3293 269.13 71.5944C267.204 73.8595 266.062 76.6861 265.874 79.653C264.35 79.3617 262.783 79.3884 261.27 79.7315C259.757 80.0746 258.332 80.7268 257.083 81.647C255.834 82.5672 254.789 83.7356 254.013 85.079C253.237 86.4223 252.747 87.9115 252.574 89.4531C251.014 89.6172 249.571 90.3576 248.528 91.5294C247.485 92.7012 246.916 94.22 246.934 95.7888C246.951 97.3576 247.553 98.8633 248.622 100.012C249.691 101.16 251.151 101.868 252.714 101.997H305.41C306.7 101.988 307.957 101.582 309.009 100.835C310.062 100.089 310.859 99.0368 311.295 97.822C311.73 96.6072 311.781 95.2881 311.443 94.043C311.104 92.7978 310.391 91.6868 309.4 90.8601V90.8601Z" stroke="#263238" stroke-linecap="round" stroke-linejoin="round"/>
<path d="M280.441 97.181V111.706" stroke="#263238" stroke-linecap="round" stroke-linejoin="round"/>
<path d="M280.441 88.473V94.276" stroke="#263238" stroke-linecap="round" stroke-linejoin="round"/>
<path d="M280.441 83.041V86.149" stroke="#263238" stroke-linecap="round" stroke-linejoin="round"/>
<path d="M277.697 110.012L280.441 113.407L283.185 110.012" stroke="#263238" stroke-linecap="round" stroke-linejoin="round"/>
<path d="M148.848 261.205C149.405 258.785 149.326 256.263 148.619 253.882C147.912 251.502 146.6 249.346 144.812 247.623C143.024 245.9 140.82 244.67 138.415 244.052C136.01 243.434 133.486 243.45 131.089 244.097C129.63 241.506 127.372 239.456 124.652 238.253C121.933 237.05 118.897 236.76 115.998 237.424C113.1 238.089 110.494 239.673 108.57 241.941C106.645 244.208 105.506 247.037 105.322 250.005C104.63 249.873 103.927 249.805 103.222 249.802C100.453 249.8 97.7799 250.818 95.7139 252.662C93.6478 254.506 92.3335 257.046 92.022 259.798C90.4617 259.961 89.0186 260.701 87.9748 261.872C86.931 263.043 86.3618 264.562 86.3784 266.131C86.395 267.699 86.9964 269.205 88.0647 270.354C89.1331 271.503 90.5916 272.212 92.155 272.342H144.9C146.189 272.328 147.442 271.92 148.491 271.171C149.54 270.423 150.335 269.371 150.767 268.157C151.2 266.943 151.25 265.626 150.91 264.383C150.571 263.14 149.858 262.031 148.869 261.205H148.848Z" stroke="#263238" stroke-linecap="round" stroke-linejoin="round"/>
<path d="M119.868 269.605V255.087" stroke="#263238" stroke-linecap="round" stroke-linejoin="round"/>
<path d="M119.868 278.32V272.51" stroke="#263238" stroke-linecap="round" stroke-linejoin="round"/>
<path d="M119.868 283.752V280.644" stroke="#263238" stroke-linecap="round" stroke-linejoin="round"/>
<path d="M122.612 256.781L119.868 253.386L117.124 256.781" stroke="#263238" stroke-linecap="round" stroke-linejoin="round"/>
<path d="M37.436 76.9301H213.451C214.238 76.9301 214.993 77.2428 215.55 77.7994C216.106 78.356 216.419 79.1109 216.419 79.8981V88.2001H34.468V79.8981C34.468 79.1109 34.7807 78.356 35.3373 77.7994C35.8939 77.2428 36.6489 76.9301 37.436 76.9301V76.9301Z" fill="#F1F1F1" stroke="#263238" stroke-linecap="round" stroke-linejoin="round"/>
<path d="M226.331 90.2791H42.434V219.688H226.331V90.2791Z" fill="white" stroke="#263238" stroke-linecap="round" stroke-linejoin="round"/>
<path d="M229.145 82.5581C229.145 83.1118 228.981 83.6532 228.673 84.1137C228.365 84.5741 227.928 84.933 227.417 85.1449C226.905 85.3568 226.342 85.4123 225.799 85.3043C225.256 85.1962 224.757 84.9295 224.365 84.538C223.974 84.1464 223.707 83.6475 223.599 83.1043C223.491 82.5612 223.546 81.9982 223.758 81.4865C223.97 80.9749 224.329 80.5376 224.789 80.2299C225.25 79.9223 225.791 79.7581 226.345 79.7581C227.088 79.7581 227.8 80.0531 228.325 80.5782C228.85 81.1033 229.145 81.8155 229.145 82.5581Z" fill="white" stroke="#263238" stroke-linecap="round" stroke-linejoin="round"/>
<path d="M219.233 82.5581C219.233 83.1118 219.069 83.6532 218.761 84.1137C218.453 84.5741 218.016 84.933 217.505 85.1449C216.993 85.3568 216.43 85.4123 215.887 85.3043C215.344 85.1962 214.845 84.9295 214.453 84.538C214.062 84.1464 213.795 83.6475 213.687 83.1043C213.579 82.5612 213.634 81.9982 213.846 81.4865C214.058 80.9749 214.417 80.5376 214.877 80.2299C215.338 79.9223 215.879 79.7581 216.433 79.7581C217.176 79.7581 217.888 80.0531 218.413 80.5782C218.938 81.1033 219.233 81.8155 219.233 82.5581Z" fill="white" stroke="#263238" stroke-linecap="round" stroke-linejoin="round"/>
<path d="M209.3 82.5581C209.3 83.1118 209.136 83.6532 208.828 84.1137C208.52 84.5741 208.083 84.933 207.572 85.1449C207.06 85.3568 206.497 85.4123 205.954 85.3043C205.411 85.1962 204.912 84.9295 204.52 84.538C204.129 84.1464 203.862 83.6475 203.754 83.1043C203.646 82.5612 203.701 81.9982 203.913 81.4865C204.125 80.9749 204.484 80.5376 204.944 80.2299C205.405 79.9223 205.946 79.7581 206.5 79.7581C207.243 79.7581 207.955 80.0531 208.48 80.5782C209.005 81.1033 209.3 81.8155 209.3 82.5581Z" fill="white" stroke="#263238" stroke-linecap="round" stroke-linejoin="round"/>
<path d="M220.759 95.8301H213.479" stroke="#263238" stroke-width="2" stroke-linecap="round" stroke-linejoin="round"/>
<path d="M220.759 98.7841H213.479" stroke="#263238" stroke-width="2" stroke-linecap="round" stroke-linejoin="round"/>
<path d="M220.759 101.738H213.479" stroke="#263238" stroke-width="2" stroke-linecap="round" stroke-linejoin="round"/>
<path d="M55.167 172.186H110.278" stroke="#263238" stroke-width="2" stroke-linecap="round" stroke-linejoin="round"/>
<path d="M55.167 176.533H110.278" stroke="#263238" stroke-width="2" stroke-linecap="round" stroke-linejoin="round"/>
<path d="M55.167 180.957H98.623" stroke="#263238" stroke-width="2" stroke-linecap="round" stroke-linejoin="round"/>
<path d="M172.032 91.735V92.085" stroke="#263238" stroke-linecap="round" stroke-linejoin="round"/>
<path d="M172.032 94.1851V216.146" stroke="#263238" stroke-linecap="round" stroke-linejoin="round" stroke-dasharray="1 3"/>
<path d="M172.032 217.196V217.546" stroke="#263238" stroke-linecap="round" stroke-linejoin="round"/>
<path d="M44.646 190.666H44.996" stroke="#263238" stroke-linecap="round" stroke-linejoin="round"/>
<path d="M47.089 190.666H222.117" stroke="#263238" stroke-linecap="round" stroke-linejoin="round" stroke-dasharray="1 2.99"/>
<path d="M223.167 190.666H223.517" stroke="#263238" stroke-linecap="round" stroke-linejoin="round"/>
<path d="M173.243 189.455H170.828V191.87H173.243V189.455Z" fill="white" stroke="#263238" stroke-linecap="round" stroke-linejoin="round"/>
<path d="M162.393 167.468H130.151" stroke="#263238" stroke-linecap="round" stroke-linejoin="round"/>
<path d="M163.016 182.378C163.016 182.378 163.016 167.391 146.272 167.391C129.528 167.391 129.5 182.378 129.5 182.378" stroke="#263238" stroke-linecap="round" stroke-linejoin="round"/>
<path d="M163.016 183.792C163.797 183.792 164.43 183.159 164.43 182.378C164.43 181.597 163.797 180.964 163.016 180.964C162.235 180.964 161.602 181.597 161.602 182.378C161.602 183.159 162.235 183.792 163.016 183.792Z" fill="#F1F1F1" stroke="#263238" stroke-linecap="round" stroke-linejoin="round"/>
<path d="M128.1 182.378C128.1 182.101 128.182 181.83 128.336 181.6C128.49 181.37 128.708 181.191 128.964 181.085C129.22 180.979 129.502 180.951 129.773 181.005C130.045 181.059 130.294 181.192 130.49 181.388C130.686 181.584 130.819 181.833 130.873 182.105C130.927 182.376 130.899 182.658 130.793 182.914C130.687 183.17 130.508 183.388 130.278 183.542C130.048 183.696 129.777 183.778 129.5 183.778C129.129 183.778 128.773 183.631 128.51 183.368C128.248 183.105 128.1 182.749 128.1 182.378Z" fill="#F1F1F1" stroke="#263238" stroke-linecap="round" stroke-linejoin="round"/>
<path d="M161.777 168.63H164.255V166.152H161.777V168.63Z" fill="#F1F1F1" stroke="#263238" stroke-linecap="round" stroke-linejoin="round"/>
<path d="M145.033 168.63H147.511V166.152H145.033V168.63Z" fill="#F1F1F1" stroke="#263238" stroke-linecap="round" stroke-linejoin="round"/>
<path d="M128.289 168.63H130.767V166.152H128.289V168.63Z" fill="#F1F1F1" stroke="#263238" stroke-linecap="round" stroke-linejoin="round"/>
<path d="M75.201 122.409V117.453L71.498 117.138C71.2782 116.364 70.9705 115.617 70.581 114.912L72.975 112.07L69.475 108.57L66.626 110.964C65.9239 110.569 65.1764 110.262 64.4 110.047L64.078 106.337H59.136L58.814 110.047C58.0396 110.261 57.2943 110.569 56.595 110.964L53.746 108.57L50.246 112.07L52.64 114.912C52.2476 115.615 51.9398 116.362 51.723 117.138L48.013 117.453V122.409L51.723 122.724C51.941 123.499 52.2488 124.246 52.64 124.95L50.246 127.792L53.746 131.292L56.595 128.898C57.2899 129.292 58.0304 129.6 58.8 129.815L59.122 133.525H64.071L64.393 129.815C65.167 129.6 65.9121 129.292 66.612 128.898L69.461 131.292L72.961 127.792L70.567 124.95C70.9553 124.245 71.2629 123.498 71.484 122.724L75.201 122.409ZM61.6 125.685C60.462 125.685 59.3495 125.348 58.4033 124.715C57.457 124.083 56.7195 123.184 56.284 122.133C55.8485 121.082 55.7346 119.925 55.9566 118.808C56.1786 117.692 56.7266 116.667 57.5313 115.862C58.336 115.058 59.3613 114.51 60.4775 114.288C61.5936 114.066 62.7506 114.18 63.802 114.615C64.8534 115.051 65.752 115.788 66.3843 116.734C67.0165 117.681 67.354 118.793 67.354 119.931C67.354 121.457 66.7478 122.921 65.6687 124C64.5896 125.079 63.1261 125.685 61.6 125.685Z" fill="#F1F1F1" stroke="#263238" stroke-linecap="round" stroke-linejoin="round"/>
<path d="M92.0291 133.511V130.123L89.4881 129.899C89.3419 129.37 89.1327 128.86 88.8651 128.38L90.503 126.434L88.1021 124.04L86.1561 125.678C85.6753 125.411 85.1657 125.2 84.6371 125.048L84.4201 122.5H81.0321L80.8081 125.041C80.2794 125.193 79.7698 125.404 79.2891 125.671L77.3431 124.033L74.9421 126.427L76.5871 128.373C76.3142 128.851 76.1026 129.361 75.9571 129.892L73.4161 130.116V133.504L75.9571 133.721C76.1013 134.252 76.313 134.763 76.5871 135.24L74.9421 137.2L77.3431 139.594L79.2891 137.956C79.7698 138.223 80.2794 138.434 80.8081 138.586L81.0321 141.12H84.4201L84.6371 138.586C85.1657 138.434 85.6753 138.223 86.1561 137.956L88.1021 139.594L90.503 137.2L88.9001 135.247C89.169 134.768 89.3782 134.258 89.5231 133.728L92.0291 133.511ZM82.7261 135.751C81.946 135.752 81.1831 135.522 80.5339 135.09C79.8848 134.657 79.3786 134.042 79.0794 133.321C78.7803 132.601 78.7016 131.808 78.8535 131.043C79.0053 130.278 79.3808 129.575 79.9324 129.023C80.4839 128.472 81.1868 128.096 81.9519 127.944C82.7171 127.793 83.51 127.871 84.2305 128.17C84.9509 128.469 85.5663 128.976 85.9988 129.625C86.4313 130.274 86.6614 131.037 86.6601 131.817C86.6582 132.86 86.2431 133.859 85.5058 134.597C84.7684 135.334 83.7689 135.749 82.7261 135.751V135.751Z" fill="#F1F1F1" stroke="#263238" stroke-linecap="round" stroke-linejoin="round"/>
<path d="M178.948 198.898H206.059" stroke="#263238" stroke-width="2" stroke-linecap="round" stroke-linejoin="round"/>
<path d="M178.948 203.245H206.059" stroke="#263238" stroke-width="2" stroke-linecap="round" stroke-linejoin="round"/>
<path d="M178.948 207.669H194.404" stroke="#263238" stroke-width="2" stroke-linecap="round" stroke-linejoin="round"/>
<path d="M143.227 209.475H128.954C128.026 209.475 127.136 209.106 126.479 208.45C125.823 207.793 125.454 206.903 125.454 205.975C125.454 205.047 125.823 204.156 126.479 203.5C127.136 202.844 128.026 202.475 128.954 202.475H143.227C144.155 202.475 145.046 202.844 145.702 203.5C146.358 204.156 146.727 205.047 146.727 205.975C146.727 206.903 146.358 207.793 145.702 208.45C145.046 209.106 144.155 209.475 143.227 209.475Z" fill="#F1F1F1" stroke="#263238" stroke-linecap="round" stroke-linejoin="round"/>
<path d="M169.827 209.475H155.554C154.626 209.475 153.736 209.106 153.079 208.45C152.423 207.793 152.054 206.903 152.054 205.975C152.054 205.047 152.423 204.156 153.079 203.5C153.736 202.844 154.626 202.475 155.554 202.475H169.827C170.755 202.475 171.646 202.844 172.302 203.5C172.958 204.156 173.327 205.047 173.327 205.975C173.327 206.903 172.958 207.793 172.302 208.45C171.646 209.106 170.755 209.475 169.827 209.475Z" fill="#F1F1F1" stroke="#263238" stroke-linecap="round" stroke-linejoin="round"/>
<path d="M211.197 134.379H180.929V164.647H211.197V134.379Z" fill="white" stroke="#263238" stroke-linecap="round" stroke-linejoin="round"/>
<path d="M180.929 134.379L211.197 164.647" stroke="#263238" stroke-linecap="round" stroke-linejoin="round"/>
<path d="M211.197 134.379L180.929 164.647" stroke="#263238" stroke-linecap="round" stroke-linejoin="round"/>
<path d="M192.801 100.016V107.079L189.686 110.194H182.623V100.016H192.801Z" fill="white" stroke="#263238" stroke-linecap="round" stroke-linejoin="round"/>
<path d="M192.801 107.079L189.686 110.194V107.079H192.801Z" fill="white" stroke="#263238" stroke-linecap="round" stroke-linejoin="round"/>
<path d="M84.5601 154.637V161.7L81.445 164.822H74.382V154.637H84.5601Z" fill="white" stroke="#263238" stroke-linecap="round" stroke-linejoin="round"/>
<path d="M84.56 161.7L81.445 164.822V161.7H84.56Z" fill="white" stroke="#263238" stroke-linecap="round" stroke-linejoin="round"/>
<path d="M46.102 198.156V205.219L42.987 208.334H35.917V198.156H46.102Z" fill="white" stroke="#263238" stroke-linecap="round" stroke-linejoin="round"/>
<path d="M46.102 205.219L42.987 208.334V205.219H46.102Z" fill="white" stroke="#263238" stroke-linecap="round" stroke-linejoin="round"/>
<path d="M244.069 116.396H206.507V139.937H244.069V116.396Z" fill="#263238" stroke="#263238" stroke-linecap="round" stroke-linejoin="round"/>
<path d="M244.069 116.396H206.507V119.973H244.069V116.396Z" fill="#F1F1F1" stroke="#263238" stroke-linecap="round" stroke-linejoin="round"/>
<path d="M210.336 122.99H219.94" stroke="white" stroke-linecap="round" stroke-linejoin="round"/>
<path d="M215.138 125.671H231.756" stroke="white" stroke-linecap="round" stroke-linejoin="round"/>
<path d="M213.017 128.17H217.91" stroke="white" stroke-linecap="round" stroke-linejoin="round"/>
<path d="M215.138 131.117H226.331" stroke="white" stroke-linecap="round" stroke-linejoin="round"/>
<path d="M210.336 133.791H219.94" stroke="white" stroke-linecap="round" stroke-linejoin="round"/>
<path d="M102.802 211.113H65.24V234.654H102.802V211.113Z" fill="#263238" stroke="#263238" stroke-linecap="round" stroke-linejoin="round"/>
<path d="M102.802 211.113H65.24V214.69H102.802V211.113Z" fill="#F1F1F1" stroke="#263238" stroke-linecap="round" stroke-linejoin="round"/>
<path d="M69.076 217.714H78.673" stroke="white" stroke-linecap="round" stroke-linejoin="round"/>
<path d="M73.871 220.388H90.489" stroke="white" stroke-linecap="round" stroke-linejoin="round"/>
<path d="M71.75 222.887H76.643" stroke="white" stroke-linecap="round" stroke-linejoin="round"/>
<path d="M73.871 225.834H85.064" stroke="white" stroke-linecap="round" stroke-linejoin="round"/>
<path d="M69.076 228.515H78.673" stroke="white" stroke-linecap="round" stroke-linejoin="round"/>
<path d="M116.9 40.6H82.39C81.9858 40.6018 81.5988 40.7632 81.313 41.049C81.0272 41.3347 80.8658 41.7218 80.864 42.126V58.226C80.8658 58.6295 81.0274 59.0158 81.3134 59.3005C81.5994 59.5852 81.9865 59.745 82.39 59.745H97.86L99.624 66.045L101.395 59.745H116.9C117.303 59.745 117.691 59.5852 117.977 59.3005C118.263 59.0158 118.424 58.6295 118.426 58.226V42.126C118.424 41.7218 118.263 41.3347 117.977 41.049C117.691 40.7632 117.304 40.6018 116.9 40.6V40.6Z" fill="#F1F1F1" stroke="#263238" stroke-linecap="round" stroke-linejoin="round"/>
<path d="M86.59 45.2059H112.665" stroke="#263238" stroke-width="2" stroke-linecap="round" stroke-linejoin="round"/>
<path d="M86.59 48.51H112.665" stroke="#263238" stroke-width="2" stroke-linecap="round" stroke-linejoin="round"/>
<path d="M86.59 51.814H112.665" stroke="#263238" stroke-width="2" stroke-linecap="round" stroke-linejoin="round"/>
<path d="M86.59 55.1179H106.239" stroke="#263238" stroke-width="2" stroke-linecap="round" stroke-linejoin="round"/>
<path d="M173.509 155.106C169.806 155.421 165.109 150.997 165.109 150.997C165.019 151.09 164.909 151.161 164.786 151.204C164.664 151.247 164.534 151.26 164.405 151.244C164.277 151.228 164.154 151.182 164.047 151.11C163.939 151.038 163.85 150.942 163.786 150.829C163.184 149.961 160.573 147.952 160.426 146.216C160.279 144.48 163.359 141.666 163.359 141.666C160.986 142.31 160.734 140.917 160.734 140.917C160.734 140.917 164.731 137.62 166.131 137.529C166.677 137.494 169.057 138.866 171.36 140.714C173.768 142.653 178.29 149.478 178.29 149.478C178.29 149.478 193.585 160.587 197.449 163.429C202.552 167.181 208.6 173.838 208.6 173.838C208.6 173.838 228.9 182.994 234.5 188.027L226.926 205.961C226.926 205.961 208.467 193.592 206.626 190.456C204.785 187.32 202.937 189.203 201.089 187.152C199.241 185.101 197.47 182.756 197.47 182.756C194.183 181.169 191.2 179.018 188.657 176.4C184.345 171.969 180.544 165.2 178.157 161.126C176.921 158.896 175.354 156.866 173.509 155.106V155.106Z" fill="white" stroke="#263238" stroke-linecap="round" stroke-linejoin="round"/>
<path d="M174.636 152.488C174.636 152.488 169.127 151.151 168.651 147.518C168.441 146.597 168.037 145.731 167.468 144.977C167.468 144.977 162.33 144.725 162.652 142.632L169.512 142.023C172.009 142.982 174.112 144.752 175.483 147.049" fill="white"/>
<path d="M174.636 152.488C174.636 152.488 169.127 151.151 168.651 147.518C168.441 146.597 168.037 145.731 167.468 144.977C167.468 144.977 162.33 144.725 162.652 142.632L169.512 142.023C172.009 142.982 174.112 144.752 175.483 147.049" stroke="#263238" stroke-linecap="round" stroke-linejoin="round"/>
<path d="M165.102 150.997C165.346 150.543 165.428 150.02 165.333 149.513C165.333 149.513 166.845 149.233 166.677 147.896C166.677 147.896 168.917 147.623 167.468 144.977" stroke="#263238" stroke-linecap="round" stroke-linejoin="round"/>
<path d="M166.677 147.896C166.677 147.896 163.66 145.663 163.324 144.641" stroke="#263238" stroke-linecap="round" stroke-linejoin="round"/>
<path d="M165.333 149.513C165.333 149.513 162.12 147.553 162.064 146.412" stroke="#263238" stroke-linecap="round" stroke-linejoin="round"/>
<path d="M166.068 139.447C166.068 139.447 165.046 141.281 163.352 141.666" stroke="#263238" stroke-linecap="round" stroke-linejoin="round"/>
<path d="M165.557 140.161C166.094 140.442 166.601 140.777 167.069 141.162" stroke="#263238" stroke-linecap="round" stroke-linejoin="round"/>
<path d="M282.884 202.16C274.963 198.808 266.793 196.079 258.447 193.998C246.155 191.121 226.247 188.552 226.247 188.552C226.247 188.552 231.721 244.412 230.279 247.772C228.837 251.132 220.185 262.416 220.185 262.416C220.185 262.416 267.008 280.672 275.17 282.226C283.332 283.78 279.076 255.451 279.076 255.451C279.076 255.451 287.7 219.443 282.884 202.16Z" fill="#263238"/>
<path d="M266.077 196.161C266.077 196.161 267.19 198.261 264.264 199.36C256.683 202.16 248.605 199.689 249.466 196.721C249.795 195.587 251.671 196.721 251.566 192.521C251.514 191.874 251.341 191.242 251.055 190.659C250.52 189.523 249.875 188.442 249.13 187.432C248.321 186.308 247.454 185.226 246.533 184.191C246.533 184.191 258.566 176.491 267.491 184.191C267.477 184.156 264.159 185.836 266.077 196.161Z" fill="white" stroke="#263238" stroke-linecap="round" stroke-linejoin="round"/>
<path d="M280.987 295.652C276.248 303.352 252.203 306.999 239.078 306.656C225.953 306.313 188.188 288.456 185.626 284.648C183.253 281.148 177.422 269.549 186.41 262.542C187.173 261.953 187.983 261.429 188.832 260.974C194.985 257.642 235.907 268.149 235.907 268.149C235.907 268.149 238.441 266.546 239.372 266.665C242.228 267.029 244.272 269.339 250.04 270.984C254.079 272.139 265.104 267.701 272.146 271.516C272.928 271.934 273.648 272.457 274.288 273.07C280.868 279.356 285.719 287.931 280.987 295.652Z" fill="#F1F1F1"/>
<path opacity="0.3" d="M272.146 271.516C264.929 271.033 258.496 272.545 254.002 275.198C248.675 278.348 223.517 290.465 223.517 290.465C223.573 289.163 224.973 286.538 224.973 286.538C222.607 284.438 216.419 282.793 216.419 282.793C211.624 278.698 192.619 266.483 186.41 262.542C187.173 261.953 187.983 261.429 188.832 260.974C194.985 257.642 235.907 268.149 235.907 268.149C235.907 268.149 238.441 266.546 239.372 266.665C242.228 267.029 244.272 269.339 250.04 270.984C254.1 272.139 265.104 267.701 272.146 271.516Z" fill="#181818" fill-opacity="0.7"/>
<path d="M280.987 295.652C276.248 303.352 252.203 306.999 239.078 306.656C225.953 306.313 188.188 288.456 185.626 284.648C183.253 281.148 177.422 269.549 186.41 262.542C187.173 261.953 187.983 261.429 188.832 260.974C194.985 257.642 235.907 268.149 235.907 268.149C235.907 268.149 238.441 266.546 239.372 266.665C242.228 267.029 244.272 269.339 250.04 270.984C254.079 272.139 265.104 267.701 272.146 271.516C272.928 271.934 273.648 272.457 274.288 273.07C280.868 279.356 285.719 287.931 280.987 295.652Z" stroke="#263238" stroke-linecap="round" stroke-linejoin="round"/>
<path d="M273.609 302.624L274.211 305.263C274.211 305.263 272.601 309.827 265.524 310.576C258.447 311.325 254.254 312.886 250.824 313.089C249.031 313.231 247.229 313.202 245.441 313.005L244.741 311.969L273.609 302.624Z" fill="white" stroke="#263238" stroke-linecap="round" stroke-linejoin="round"/>
<path d="M232.512 302.344L244.776 311.969C250.687 311.464 256.56 310.585 262.36 309.337V309.337C268.17 307.993 273.245 306.068 273.518 303.422C273.945 299.404 269.647 298.305 264.544 298.459C263.592 298.459 262.612 298.557 261.625 298.655C253.456 299.53 243.068 295.022 243.068 295.022L232.512 302.344Z" fill="#263238"/>
<path opacity="0.3" d="M273.525 303.324C271.144 304.21 268.86 305.336 266.707 306.684C266.707 306.684 255.318 312.543 237.811 306.509L232.512 302.344L243.068 295.015C243.068 295.015 253.449 299.53 261.625 298.648C262.612 298.543 263.592 298.473 264.544 298.452C269.612 298.298 273.875 299.376 273.525 303.324Z" fill="#181818" fill-opacity="0.7"/>
<path d="M232.512 302.344L244.776 311.969C250.687 311.464 256.56 310.585 262.36 309.337V309.337C268.17 307.993 273.245 306.068 273.518 303.422C273.945 299.404 269.647 298.305 264.544 298.459C263.592 298.459 262.612 298.557 261.625 298.655C253.456 299.53 243.068 295.022 243.068 295.022L232.512 302.344Z" stroke="#263238" stroke-linecap="round" stroke-linejoin="round"/>
<path d="M243.943 306.138C241.731 306.495 244.16 311.038 247.156 309.638C250.152 308.238 246.155 305.774 243.943 306.138Z" fill="white"/>
<path opacity="0.2" d="M248.094 308.917C246.492 308.722 244.901 308.444 243.327 308.084C242.907 307.195 243.005 306.285 243.943 306.138C245.798 305.83 248.92 307.545 248.094 308.917Z" fill="#181818" fill-opacity="0.7"/>
<path d="M243.943 306.138C241.731 306.495 244.16 311.038 247.156 309.638C250.152 308.238 246.155 305.774 243.943 306.138Z" stroke="#263238" stroke-linecap="round" stroke-linejoin="round"/>
<path d="M262.36 309.33C268.17 307.986 273.245 306.061 273.518 303.415C273.945 299.397 269.647 298.298 264.544 298.452C264.32 298.669 259.371 303.45 262.36 309.33Z" fill="white"/>
<path opacity="0.3" d="M273.525 303.324C271.144 304.21 268.86 305.336 266.707 306.684C265.173 307.393 263.564 307.931 261.912 308.287C259.952 302.897 264.334 298.655 264.544 298.452C269.612 298.298 273.875 299.376 273.525 303.324Z" fill="#181818" fill-opacity="0.7"/>
<path d="M262.36 309.33C268.17 307.986 273.245 306.061 273.518 303.415C273.945 299.397 269.647 298.298 264.544 298.452C264.32 298.669 259.371 303.45 262.36 309.33Z" stroke="#263238" stroke-linecap="round" stroke-linejoin="round"/>
<path d="M258.216 304.339H258.251C258.331 304.343 258.41 304.331 258.485 304.303C258.56 304.276 258.629 304.234 258.687 304.18C258.746 304.126 258.793 304.061 258.827 303.989C258.86 303.916 258.878 303.838 258.881 303.758C259.079 302.038 259.814 300.424 260.981 299.145C261.037 299.089 261.082 299.023 261.112 298.949C261.143 298.876 261.159 298.797 261.159 298.718C261.159 298.639 261.143 298.56 261.112 298.487C261.082 298.414 261.037 298.347 260.981 298.291C260.867 298.179 260.714 298.116 260.554 298.116C260.394 298.116 260.241 298.179 260.127 298.291C258.754 299.78 257.902 301.674 257.698 303.688C257.684 303.842 257.73 303.996 257.826 304.117C257.923 304.239 258.062 304.318 258.216 304.339Z" fill="white" stroke="#263238" stroke-linecap="round" stroke-linejoin="round"/>
<path d="M255.787 304.5H255.836C255.916 304.502 255.995 304.488 256.069 304.459C256.143 304.43 256.211 304.387 256.268 304.331C256.326 304.276 256.371 304.21 256.403 304.137C256.434 304.063 256.451 303.985 256.452 303.905C256.591 302.157 257.238 300.488 258.314 299.103C258.373 299.043 258.419 298.971 258.448 298.892C258.478 298.813 258.491 298.728 258.486 298.644C258.481 298.56 258.459 298.478 258.421 298.402C258.383 298.327 258.33 298.261 258.264 298.207C258.199 298.154 258.124 298.114 258.042 298.092C257.961 298.069 257.876 298.063 257.793 298.075C257.709 298.087 257.629 298.116 257.557 298.16C257.485 298.205 257.424 298.264 257.376 298.333C256.127 299.926 255.383 301.857 255.241 303.877C255.235 304.031 255.288 304.182 255.39 304.297C255.491 304.413 255.634 304.486 255.787 304.5Z" fill="white" stroke="#263238" stroke-linecap="round" stroke-linejoin="round"/>
<path d="M252.882 304.178C252.961 304.186 253.041 304.178 253.117 304.154C253.193 304.131 253.264 304.093 253.325 304.042C253.386 303.991 253.436 303.929 253.473 303.859C253.51 303.788 253.533 303.711 253.54 303.632C253.729 301.532 255.535 298.781 255.556 298.732C255.645 298.597 255.677 298.433 255.645 298.274C255.614 298.116 255.521 297.976 255.388 297.885C255.254 297.797 255.091 297.765 254.933 297.796C254.776 297.828 254.638 297.92 254.548 298.053C254.464 298.172 252.546 301.056 252.329 303.492C252.318 303.574 252.324 303.657 252.346 303.736C252.369 303.815 252.407 303.889 252.459 303.953C252.51 304.018 252.575 304.07 252.647 304.109C252.72 304.148 252.8 304.171 252.882 304.178V304.178Z" fill="white" stroke="#263238" stroke-linecap="round" stroke-linejoin="round"/>
<path d="M250.138 303.891C250.191 303.898 250.246 303.898 250.299 303.891C250.378 303.878 250.453 303.85 250.521 303.808C250.589 303.766 250.648 303.71 250.694 303.645C250.74 303.58 250.773 303.506 250.791 303.428C250.808 303.35 250.81 303.27 250.796 303.191C250.369 300.615 252.763 298.41 252.784 298.389C252.863 298.277 252.902 298.142 252.895 298.005C252.888 297.868 252.834 297.737 252.744 297.634C252.653 297.532 252.53 297.462 252.395 297.438C252.26 297.414 252.121 297.435 252 297.5C251.881 297.605 249.088 300.167 249.627 303.408C249.653 303.531 249.715 303.643 249.807 303.73C249.898 303.816 250.014 303.872 250.138 303.891V303.891Z" fill="white" stroke="#263238" stroke-linecap="round" stroke-linejoin="round"/>
<path d="M247.156 303.17C247.221 303.181 247.287 303.181 247.352 303.17C247.503 303.133 247.634 303.04 247.718 302.91C247.803 302.78 247.835 302.623 247.807 302.47C247.282 300.174 249.543 297.57 249.571 297.57C249.676 297.449 249.729 297.291 249.718 297.132C249.708 296.972 249.635 296.822 249.515 296.716C249.456 296.663 249.387 296.622 249.312 296.596C249.237 296.569 249.157 296.558 249.078 296.563C248.998 296.567 248.921 296.587 248.849 296.622C248.778 296.657 248.714 296.705 248.661 296.765C248.549 296.891 245.959 299.852 246.624 302.764C246.663 302.877 246.734 302.976 246.828 303.048C246.923 303.12 247.037 303.163 247.156 303.17Z" fill="white" stroke="#263238" stroke-linecap="round" stroke-linejoin="round"/>
<path d="M184.1 298.676L183.225 301.238C183.225 301.238 184.345 305.949 191.303 307.433C198.261 308.917 202.265 310.933 205.625 311.479C207.394 311.805 209.189 311.964 210.987 311.955L211.792 310.996L184.1 298.676Z" fill="white" stroke="#263238" stroke-linecap="round" stroke-linejoin="round"/>
<path d="M224.973 302.715L211.771 310.996C205.945 309.874 200.196 308.384 194.558 306.537V306.537C188.923 304.591 184.058 302.141 184.058 299.481C184.058 295.435 188.447 294.798 193.508 295.484C194.453 295.61 195.419 295.785 196.392 295.988C204.421 297.717 215.222 294.322 215.222 294.322L224.973 302.715Z" fill="#263238"/>
<path opacity="0.3" d="M224.973 302.715L217.21 307.615C210.915 305.66 205.395 301.773 201.432 296.506C206.111 296.403 210.756 295.676 215.243 294.343L224.973 302.715Z" fill="#181818" fill-opacity="0.7"/>
<path d="M224.973 302.715L211.771 310.996C205.945 309.874 200.196 308.384 194.558 306.537V306.537C188.923 304.591 184.058 302.141 184.058 299.481C184.058 295.435 188.447 294.798 193.508 295.484C194.453 295.61 195.419 295.785 196.392 295.988C204.421 297.717 215.222 294.322 215.222 294.322L224.973 302.715Z" stroke="#263238" stroke-linecap="round" stroke-linejoin="round"/>
<path d="M194.558 306.53C188.923 304.584 184.058 302.134 184.058 299.474C184.058 295.428 188.447 294.791 193.508 295.477C193.732 295.715 198.149 301 194.558 306.53Z" fill="white" stroke="#263238" stroke-linecap="round" stroke-linejoin="round"/>
<path d="M199.206 302.001H199.171C199.01 301.99 198.86 301.917 198.752 301.796C198.645 301.676 198.589 301.518 198.597 301.357C198.586 299.629 198.03 297.949 197.008 296.555C196.948 296.494 196.903 296.421 196.873 296.341C196.844 296.261 196.831 296.175 196.837 296.09C196.843 296.005 196.866 295.922 196.906 295.847C196.946 295.771 197.001 295.705 197.068 295.652C197.135 295.599 197.213 295.561 197.295 295.54C197.378 295.519 197.464 295.516 197.548 295.531C197.632 295.545 197.713 295.577 197.783 295.625C197.854 295.672 197.914 295.734 197.96 295.806C199.168 297.423 199.817 299.388 199.808 301.406C199.806 301.565 199.742 301.716 199.629 301.827C199.516 301.939 199.364 302.001 199.206 302.001Z" fill="white" stroke="#263238" stroke-linecap="round" stroke-linejoin="round"/>
<path d="M201.6 302.4H201.544C201.384 302.386 201.235 302.309 201.132 302.185C201.028 302.062 200.977 301.903 200.991 301.742C201.041 299.992 200.576 298.267 199.654 296.779C199.608 296.713 199.576 296.638 199.558 296.56C199.541 296.481 199.54 296.399 199.554 296.32C199.568 296.241 199.598 296.165 199.642 296.097C199.685 296.03 199.742 295.971 199.808 295.925C199.874 295.879 199.949 295.847 200.028 295.829C200.106 295.812 200.188 295.811 200.267 295.825C200.346 295.839 200.422 295.869 200.49 295.913C200.557 295.956 200.616 296.013 200.662 296.079C201.743 297.793 202.28 299.794 202.202 301.819C202.195 301.974 202.129 302.121 202.017 302.229C201.905 302.337 201.756 302.398 201.6 302.4Z" fill="white" stroke="#263238" stroke-linecap="round" stroke-linejoin="round"/>
<path d="M204.526 302.4C204.365 302.396 204.212 302.33 204.099 302.215C203.987 302.1 203.924 301.945 203.924 301.784C203.966 299.649 202.454 296.758 202.433 296.73C202.359 296.586 202.344 296.419 202.393 296.264C202.441 296.109 202.549 295.98 202.692 295.904C202.835 295.83 203.001 295.816 203.155 295.865C203.308 295.913 203.436 296.02 203.511 296.163C203.581 296.289 205.184 299.355 205.142 301.805C205.138 301.965 205.072 302.118 204.956 302.229C204.841 302.341 204.686 302.402 204.526 302.4V302.4Z" fill="white" stroke="#263238" stroke-linecap="round" stroke-linejoin="round"/>
<path d="M207.284 302.4H207.123C206.968 302.356 206.837 302.253 206.759 302.112C206.68 301.972 206.66 301.806 206.703 301.651C207.403 299.138 205.254 296.688 205.233 296.667C205.172 296.609 205.124 296.539 205.092 296.462C205.059 296.385 205.043 296.301 205.044 296.217C205.045 296.133 205.064 296.051 205.099 295.974C205.133 295.898 205.184 295.829 205.246 295.773C205.308 295.717 205.382 295.675 205.461 295.648C205.541 295.622 205.625 295.612 205.709 295.62C205.792 295.627 205.874 295.652 205.947 295.693C206.021 295.733 206.085 295.788 206.136 295.855C206.241 295.974 208.754 298.816 207.872 301.98C207.831 302.103 207.752 302.21 207.646 302.285C207.54 302.361 207.414 302.401 207.284 302.4Z" fill="white" stroke="#263238" stroke-linecap="round" stroke-linejoin="round"/>
<path d="M210.329 302.001C210.262 302.004 210.195 301.992 210.133 301.966C210.057 301.942 209.986 301.902 209.926 301.85C209.865 301.797 209.815 301.733 209.78 301.662C209.745 301.59 209.724 301.511 209.72 301.431C209.716 301.351 209.728 301.271 209.755 301.196C210.518 298.97 208.537 296.149 208.523 296.121C208.466 296.057 208.422 295.982 208.396 295.9C208.37 295.818 208.361 295.732 208.371 295.647C208.381 295.561 208.408 295.479 208.452 295.405C208.495 295.331 208.554 295.267 208.624 295.218C208.694 295.168 208.774 295.134 208.858 295.117C208.942 295.1 209.029 295.102 209.113 295.121C209.196 295.14 209.275 295.177 209.343 295.228C209.412 295.28 209.469 295.346 209.51 295.421C209.608 295.554 211.869 298.774 210.91 301.602C210.866 301.72 210.786 301.822 210.682 301.893C210.578 301.964 210.455 302.002 210.329 302.001V302.001Z" fill="white" stroke="#263238" stroke-linecap="round" stroke-linejoin="round"/>
<path d="M213.206 305.284C215.369 305.879 212.506 310.114 209.643 308.434C206.78 306.754 211.05 304.696 213.206 305.284Z" fill="white" stroke="#263238" stroke-linecap="round" stroke-linejoin="round"/>
<path d="M188.244 282.8C191.485 287.343 201.096 292.362 210.644 296.499C212.352 299.327 214.366 301.959 216.65 304.346C222.544 310.408 224.945 307.013 224.945 307.013C224.945 307.013 228.669 306.593 234.164 305.844C234.393 306.377 234.791 306.819 235.298 307.102C235.805 307.384 236.39 307.491 236.964 307.405C237.664 307.293 239.064 306.271 240.611 304.92C254.492 302.82 273.329 299.32 278.411 295.246" fill="#F1F1F1"/>
<path d="M188.244 282.8C191.485 287.343 201.096 292.362 210.644 296.499C212.352 299.327 214.366 301.959 216.65 304.346C222.544 310.408 224.945 307.013 224.945 307.013C224.945 307.013 228.669 306.593 234.164 305.844C234.393 306.377 234.791 306.819 235.298 307.102C235.805 307.384 236.39 307.491 236.964 307.405C237.664 307.293 239.064 306.271 240.611 304.92C254.492 302.82 273.329 299.32 278.411 295.246" stroke="#263238" stroke-linecap="round" stroke-linejoin="round"/>
<path d="M273 274.148C270.599 271.509 268.198 271.39 263.158 271.747C263.158 271.747 250.005 275.947 240.828 281.47C231.651 286.993 218.267 292.852 218.267 292.852C218.267 292.852 214.186 291.669 211.344 292.852C211.344 292.852 209.349 293.006 210.686 296.492" stroke="#263238" stroke-linecap="round" stroke-linejoin="round"/>
<path d="M279.104 289.919C279.104 289.919 279.174 293.986 273.406 296.8" stroke="#263238" stroke-linecap="round" stroke-linejoin="round"/>
<path d="M215.488 272.951C215.488 272.951 224.588 279.531 226.415 283.871C228.203 284.625 229.931 285.517 231.581 286.538" stroke="#263238" stroke-linecap="round" stroke-linejoin="round"/>
<path d="M227.073 278.418C227.74 280.309 227.852 282.352 227.395 284.305" stroke="#263238" stroke-linecap="round" stroke-linejoin="round"/>
<path d="M224.973 274.148C225.469 274.869 225.904 275.63 226.275 276.423" stroke="#263238" stroke-linecap="round" stroke-linejoin="round"/>
<path d="M237.937 273.546C237.937 273.546 240.982 277.62 241.738 280.924" stroke="#263238" stroke-linecap="round" stroke-linejoin="round"/>
<path d="M254.898 298.158C256.031 298.091 257.158 297.951 258.272 297.738" stroke="#263238" stroke-linecap="round" stroke-linejoin="round"/>
<path d="M226.331 295.239C234.959 296.948 243.713 297.953 252.504 298.242" stroke="#263238" stroke-linecap="round" stroke-linejoin="round"/>
<path d="M287.924 233.513C287.924 233.513 286.279 262.213 284.34 263.858C282.401 265.503 279.342 266.014 273.553 266.497C267.764 266.98 242.158 268.548 242.158 268.548L239.4 260.323C239.4 260.323 253.015 258.923 259.056 256.718C263.611 255.161 268.27 253.931 273 253.036C273 253.036 271.852 245.819 271.852 242.711V228.095" fill="white"/>
<path d="M287.924 233.513C287.924 233.513 286.279 262.213 284.34 263.858C282.401 265.503 279.342 266.014 273.553 266.497C267.764 266.98 242.158 268.548 242.158 268.548L239.4 260.323C239.4 260.323 253.015 258.923 259.056 256.718C263.611 255.161 268.27 253.931 273 253.036C273 253.036 271.852 245.819 271.852 242.711V228.095" stroke="#263238" stroke-linecap="round" stroke-linejoin="round"/>
<path d="M282.884 202.16C289.121 206.003 290.962 214.886 288.806 233.849C288.806 233.849 290.647 236.089 287.924 237.209C287.924 237.209 277.725 233.394 272.986 236.026C268.247 238.658 269.486 232.393 269.486 232.393C269.486 232.393 267.533 214.949 271.852 211.792" fill="#263238"/>
<path d="M271.278 209.125C271.278 209.125 265.279 215.362 270.578 231.126C270.244 232.413 270.01 233.723 269.878 235.046C269.878 236.103 271.327 236.649 271.327 236.649" stroke="white" stroke-linecap="round" stroke-linejoin="round"/>
<path d="M264.264 219.688C264.264 219.688 264.698 227.388 269.472 230.727" stroke="white" stroke-linecap="round" stroke-linejoin="round"/>
<path d="M265.804 201.81C265.804 201.81 256.501 205.373 249.102 201.425C244.713 199.087 246.519 195.328 246.519 195.328" stroke="white" stroke-linecap="round" stroke-linejoin="round"/>
<path d="M198.905 274.162H249.543C250.687 274.162 251.826 274.014 252.931 273.721L262.92 271.103C263.058 271.067 263.181 270.987 263.268 270.874C263.355 270.761 263.403 270.623 263.403 270.48V270.48C263.403 270.307 263.334 270.142 263.212 270.02C263.09 269.898 262.925 269.829 262.752 269.829H196.812C196.641 269.831 196.477 269.9 196.356 270.022C196.236 270.144 196.168 270.309 196.168 270.48V271.425C196.168 272.151 196.456 272.847 196.97 273.36C197.483 273.874 198.179 274.162 198.905 274.162Z" fill="#757575" stroke="#263238" stroke-linecap="round" stroke-linejoin="round"/>
<path d="M193.9 271.642H244.678C244.877 271.651 245.075 271.611 245.254 271.525C245.434 271.438 245.589 271.309 245.706 271.148C245.823 270.987 245.899 270.8 245.926 270.603C245.953 270.405 245.931 270.205 245.861 270.018L236.446 233.387C236.32 232.938 236.056 232.539 235.692 232.246C235.328 231.954 234.882 231.782 234.416 231.756H183.624C183.425 231.748 183.227 231.79 183.048 231.877C182.868 231.964 182.713 232.094 182.596 232.255C182.479 232.416 182.404 232.604 182.377 232.802C182.35 232.999 182.372 233.2 182.441 233.387L191.863 270.018C191.989 270.468 192.253 270.868 192.619 271.159C192.985 271.451 193.433 271.62 193.9 271.642V271.642Z" fill="#999999" stroke="#263238" stroke-linecap="round" stroke-linejoin="round"/>
<path d="M185.416 233.058H184.457" stroke="#263238" stroke-linecap="round" stroke-linejoin="round"/>
<path d="M192.857 233.058H187.901" stroke="#263238" stroke-linecap="round" stroke-linejoin="round"/>
<path d="M243.446 267.015L235.13 234.689C235.005 234.24 234.743 233.842 234.38 233.549C234.017 233.257 233.572 233.085 233.107 233.058H193.977" stroke="#263238" stroke-linecap="round" stroke-linejoin="round"/>
<path d="M244.167 269.829L243.957 269.024" stroke="#263238" stroke-linecap="round" stroke-linejoin="round"/>
<path d="M209.167 252.623C209.201 252.92 209.262 253.212 209.349 253.498C209.993 255.703 212.058 257.047 213.955 256.487C215.852 255.927 216.867 253.687 216.223 251.482C215.579 249.277 213.5 247.933 211.603 248.493C211.381 248.561 211.168 248.652 210.966 248.766C211.07 249.514 210.956 250.276 210.637 250.96C210.317 251.645 209.807 252.222 209.167 252.623V252.623Z" fill="white" stroke="#263238" stroke-linecap="round" stroke-linejoin="round"/>
<path d="M231.581 183.974C227.185 183.498 224.791 179.319 222.145 178.668C220.669 178.315 219.222 177.847 217.819 177.268C217.819 177.268 216.909 174.09 215.544 175.168C214.179 176.246 212.387 200.018 214.144 199.269C215.901 198.52 215.908 201.327 215.908 201.327L232.225 215.705L245.903 191.485C245.903 191.485 235.977 184.457 231.581 183.974Z" fill="#263238"/>
<path d="M98.616 99.323V98.973H98.966" stroke="#263238" stroke-linecap="round" stroke-linejoin="round"/>
<path d="M101.024 98.973H160.244" stroke="#263238" stroke-linecap="round" stroke-linejoin="round" stroke-dasharray="0.98 2.93"/>
<path d="M161.266 98.973H161.616V99.323" stroke="#263238" stroke-linecap="round" stroke-linejoin="round"/>
<path d="M161.623 101.423V139.573" stroke="#263238" stroke-linecap="round" stroke-linejoin="round" stroke-dasharray="1 3"/>
<path d="M161.616 140.623V140.973H161.266" stroke="#263238" stroke-linecap="round" stroke-linejoin="round"/>
<path d="M159.215 140.973H99.995" stroke="#263238" stroke-linecap="round" stroke-linejoin="round" stroke-dasharray="0.98 2.93"/>
<path d="M98.966 140.973H98.616V140.623" stroke="#263238" stroke-linecap="round" stroke-linejoin="round"/>
<path d="M98.623 138.523V100.373" stroke="#263238" stroke-linecap="round" stroke-linejoin="round" stroke-dasharray="1 3"/>
<path d="M130.123 100.009C130.695 100.009 131.159 99.5452 131.159 98.973C131.159 98.4008 130.695 97.937 130.123 97.937C129.551 97.937 129.087 98.4008 129.087 98.973C129.087 99.5452 129.551 100.009 130.123 100.009Z" fill="#F1F1F1" stroke="#263238" stroke-linecap="round" stroke-linejoin="round"/>
<path d="M98.623 121.009C99.1951 121.009 99.659 120.545 99.659 119.973C99.659 119.401 99.1951 118.937 98.623 118.937C98.0508 118.937 97.587 119.401 97.587 119.973C97.587 120.545 98.0508 121.009 98.623 121.009Z" fill="#F1F1F1" stroke="#263238" stroke-linecap="round" stroke-linejoin="round"/>
<path d="M130.123 142.009C130.695 142.009 131.159 141.545 131.159 140.973C131.159 140.401 130.695 139.937 130.123 139.937C129.551 139.937 129.087 140.401 129.087 140.973C129.087 141.545 129.551 142.009 130.123 142.009Z" fill="#F1F1F1" stroke="#263238" stroke-linecap="round" stroke-linejoin="round"/>
<path d="M161.623 121.009C162.195 121.009 162.659 120.545 162.659 119.973C162.659 119.401 162.195 118.937 161.623 118.937C161.051 118.937 160.587 119.401 160.587 119.973C160.587 120.545 161.051 121.009 161.623 121.009Z" fill="#F1F1F1" stroke="#263238" stroke-linecap="round" stroke-linejoin="round"/>
<path d="M162.827 139.769H160.412V142.184H162.827V139.769Z" fill="#F1F1F1" stroke="#263238" stroke-linecap="round" stroke-linejoin="round"/>
<path d="M162.827 97.769H160.412V100.184H162.827V97.769Z" fill="#F1F1F1" stroke="#263238" stroke-linecap="round" stroke-linejoin="round"/>
<path d="M99.827 139.769H97.412V142.184H99.827V139.769Z" fill="#F1F1F1" stroke="#263238" stroke-linecap="round" stroke-linejoin="round"/>
<path d="M99.827 97.769H97.412V100.184H99.827V97.769Z" fill="#F1F1F1" stroke="#263238" stroke-linecap="round" stroke-linejoin="round"/>
<path d="M157.633 102.69H102.802V137.529H157.633V102.69Z" fill="white" stroke="#263238" stroke-linecap="round" stroke-linejoin="round"/>
<path d="M157.633 127.239L151.536 133.336L135.044 116.844L128.107 123.781L117.047 112.721L102.802 126.959V137.529H157.633V127.239Z" fill="#F1F1F1" stroke="#263238" stroke-linecap="round" stroke-linejoin="round"/>
<path d="M146.272 116.452C148.41 116.452 150.143 114.719 150.143 112.581C150.143 110.443 148.41 108.71 146.272 108.71C144.134 108.71 142.401 110.443 142.401 112.581C142.401 114.719 144.134 116.452 146.272 116.452Z" fill="#F1F1F1" stroke="#263238" stroke-linecap="round" stroke-linejoin="round"/>
<path d="M234.5 190.4C234.5 190.4 230.3 198.219 229.803 210.182" stroke="white" stroke-linecap="round" stroke-linejoin="round"/>
<path d="M222.152 195.811C222.152 195.811 223.405 202.461 227.052 207.277" stroke="white" stroke-linecap="round" stroke-linejoin="round"/>
<path d="M239.4 223.251C239.4 223.251 245.7 243.943 259.385 250.033" stroke="white" stroke-linecap="round" stroke-linejoin="round"/>
<path d="M255.976 185.794C255.976 185.794 255.381 190.309 251.041 190.624C250.506 189.488 249.861 188.407 249.116 187.397C251.37 186.73 253.66 186.195 255.976 185.794V185.794Z" fill="#263238"/>
<path d="M265.223 186.109C265.223 186.109 272.482 186.998 275.52 177.254C278.558 167.51 276.171 160.167 264.159 156.632C257.495 154.672 250.859 156.247 248.43 161.294C246.372 165.613 247.345 169.204 246.876 170.653C246.344 172.277 241.43 173.656 241.43 174.769C241.43 175.686 244.153 177.254 244.153 177.254L243.355 179.676L244.104 180.075C244.104 180.075 242.704 185.528 243.355 187.453C243.817 188.853 256.116 189.441 257.075 185.955" fill="white"/>
<path d="M265.223 186.109C265.223 186.109 272.482 186.998 275.52 177.254C278.558 167.51 276.171 160.167 264.159 156.632C257.495 154.672 250.859 156.247 248.43 161.294C246.372 165.613 247.345 169.204 246.876 170.653C246.344 172.277 241.43 173.656 241.43 174.769C241.43 175.686 244.153 177.254 244.153 177.254L243.355 179.676L244.104 180.075C244.104 180.075 242.704 185.528 243.355 187.453C243.817 188.853 256.116 189.441 257.075 185.955" stroke="#263238" stroke-linecap="round" stroke-linejoin="round"/>
<path d="M248.5 164.829C248.5 164.829 250.901 165.431 251.559 166.691" stroke="#263238" stroke-linecap="round" stroke-linejoin="round"/>
<path d="M248.92 170.366C248.815 171.066 248.976 171.675 249.284 171.717C249.592 171.759 249.914 171.227 250.019 170.52C250.124 169.813 249.956 169.211 249.655 169.169C249.354 169.127 249.025 169.659 248.92 170.366Z" fill="#263238"/>
<path d="M244.104 180.075C244.104 180.075 248.01 181.573 249.466 180.67" stroke="#263238" stroke-linecap="round" stroke-linejoin="round"/>
<path d="M245.476 169.806C245.189 171.374 245.539 172.746 246.26 172.879C246.981 173.012 247.807 171.857 248.094 170.296C248.381 168.735 248.038 167.349 247.31 167.216C246.582 167.083 245.77 168.245 245.476 169.806Z" stroke="#263238" stroke-linecap="round" stroke-linejoin="round"/>
<path d="M275.842 161.833C275.257 158.996 273.628 156.483 271.278 154.791C268.658 152.951 265.658 151.724 262.5 151.2C262.5 151.2 264.817 152.215 265.699 153.552C265.699 153.552 259.7 149.044 252.574 152.005C245.448 154.966 246.337 162.659 246.337 162.659L247.373 160.643C247.373 160.643 247.254 163.044 248.514 163.926C248.892 162.75 249.406 161.622 250.047 160.566C250.047 160.566 251.937 166.243 257.138 168.168C256.785 167.273 256.755 166.283 257.054 165.368C257.054 165.368 259.938 171.605 259.098 174.65L260.015 176.246C260.015 176.246 263.326 172.893 266.021 175.686C267.568 177.296 263.06 183.386 262.416 183.386L265.139 187.383C265.139 187.383 271.943 188.356 275.863 180.985C279.783 173.614 278.824 170.485 278.824 170.485C278.824 170.485 280.105 172.277 280.224 173.285C280.238 173.271 281.4 165.354 275.842 161.833Z" fill="#263238"/>
<path d="M259.833 176.953C259.833 176.953 261.933 169.897 266.399 172.382C270.865 174.867 267.68 178.633 266.077 180.082C264.474 181.531 263.277 184.163 262.234 184.163C261.191 184.163 260.96 182.882 260.96 182.882" fill="white"/>
<path d="M259.833 176.953C259.833 176.953 261.933 169.897 266.399 172.382C270.865 174.867 267.68 178.633 266.077 180.082C264.474 181.531 263.277 184.163 262.234 184.163C261.191 184.163 260.96 182.882 260.96 182.882" stroke="#263238" stroke-linecap="round" stroke-linejoin="round"/>
<path d="M248.094 170.296L260.554 172.879" stroke="#263238" stroke-linecap="round" stroke-linejoin="round"/>
</svg>
